<?xml version="1.0" encoding="utf-8" standalone="no"?>
<!DOCTYPE svg PUBLIC "-//W3C//DTD SVG 1.1//EN"
  "http://www.w3.org/Graphics/SVG/1.1/DTD/svg11.dtd">
<!-- Created with matplotlib (http://matplotlib.org/) -->
<svg height="263pt" version="1.1" viewBox="0 0 407 263" width="407pt" xmlns="http://www.w3.org/2000/svg" xmlns:xlink="http://www.w3.org/1999/xlink">
 <defs>
  <style type="text/css">
*{stroke-linecap:butt;stroke-linejoin:round;}
  </style>
 </defs>
 <g id="figure_1">
  <g id="patch_1">
   <path d="M 0 263.336028 
L 407.297031 263.336028 
L 407.297031 0 
L 0 0 
z
" style="fill:#ffffff;"/>
  </g>
  <g id="axes_1">
   <g id="patch_2">
    <path d="M 45.337031 224.790967 
L 101.057031 224.790967 
L 101.057031 21.14625 
L 45.337031 21.14625 
z
" style="fill:#ffffff;"/>
   </g>
   <g id="matplotlib.axis_1">
    <g id="xtick_1">
     <g id="line2d_1">
      <path clip-path="url(#pc155335ca0)" d="M 59.267031 224.790967 
L 59.267031 21.14625 
" style="fill:none;stroke:#ffffff;stroke-linecap:round;"/>
     </g>
     <g id="line2d_2"/>
     <g id="text_1">
      <!-- 2 sets -->
      <defs>
       <path d="M 41.40625 0 
L 2.4375 0 
L 2.4375 1.078125 
Q 20.359375 22.40625 24.1875 29.78125 
Q 28.03125 37.15625 28.03125 44.1875 
Q 28.03125 49.3125 24.859375 52.703125 
Q 21.6875 56.109375 17.09375 56.109375 
Q 9.578125 56.109375 5.421875 48.578125 
L 3.609375 49.21875 
Q 6.25 58.59375 11.625 63.078125 
Q 17 67.578125 24.03125 67.578125 
Q 29.046875 67.578125 33.203125 65.234375 
Q 37.359375 62.890625 39.703125 58.8125 
Q 42.046875 54.734375 42.046875 51.171875 
Q 42.046875 44.671875 38.421875 37.984375 
Q 33.5 28.953125 16.890625 12.796875 
L 31.203125 12.796875 
Q 36.46875 12.796875 38.0625 13.234375 
Q 39.65625 13.671875 40.671875 14.71875 
Q 41.703125 15.765625 43.359375 19.140625 
L 45.125 19.140625 
z
" id="TimesNewRomanPS-BoldMT-32"/>
       <path id="TimesNewRomanPS-BoldMT-20"/>
       <path d="M 32.234375 46.921875 
L 32.953125 31.34375 
L 31.296875 31.34375 
Q 28.328125 38.28125 25.125 40.8125 
Q 21.921875 43.359375 18.75 43.359375 
Q 16.75 43.359375 15.328125 42.015625 
Q 13.921875 40.671875 13.921875 38.921875 
Q 13.921875 37.59375 14.890625 36.375 
Q 16.453125 34.375 23.625 29.515625 
Q 30.8125 24.65625 33.078125 21.265625 
Q 35.359375 17.875 35.359375 13.671875 
Q 35.359375 9.859375 33.453125 6.203125 
Q 31.546875 2.546875 28.078125 0.578125 
Q 24.609375 -1.375 20.40625 -1.375 
Q 17.140625 -1.375 11.671875 0.6875 
Q 10.203125 1.21875 9.671875 1.21875 
Q 8.0625 1.21875 6.984375 -1.21875 
L 5.375 -1.21875 
L 4.59375 15.1875 
L 6.25 15.1875 
Q 8.453125 8.734375 12.28125 5.515625 
Q 16.109375 2.296875 19.53125 2.296875 
Q 21.875 2.296875 23.359375 3.734375 
Q 24.859375 5.171875 24.859375 7.234375 
Q 24.859375 9.578125 23.390625 11.28125 
Q 21.921875 12.984375 16.84375 16.453125 
Q 9.375 21.625 7.171875 24.359375 
Q 3.953125 28.375 3.953125 33.203125 
Q 3.953125 38.484375 7.59375 42.75 
Q 11.234375 47.015625 18.109375 47.015625 
Q 21.828125 47.015625 25.296875 45.21875 
Q 26.609375 44.484375 27.4375 44.484375 
Q 28.328125 44.484375 28.859375 44.84375 
Q 29.390625 45.21875 30.5625 46.921875 
z
" id="TimesNewRomanPS-BoldMT-73"/>
       <path d="M 42.046875 24.46875 
L 17 24.46875 
Q 17.4375 15.375 21.828125 10.109375 
Q 25.203125 6.0625 29.9375 6.0625 
Q 32.859375 6.0625 35.25 7.6875 
Q 37.640625 9.328125 40.375 13.578125 
L 42.046875 12.5 
Q 38.328125 4.9375 33.828125 1.78125 
Q 29.34375 -1.375 23.4375 -1.375 
Q 13.28125 -1.375 8.0625 6.453125 
Q 3.859375 12.75 3.859375 22.078125 
Q 3.859375 33.5 10.03125 40.25 
Q 16.21875 47.015625 24.515625 47.015625 
Q 31.453125 47.015625 36.546875 41.328125 
Q 41.65625 35.640625 42.046875 24.46875 
z
M 30.03125 27.734375 
Q 30.03125 35.59375 29.171875 38.515625 
Q 28.328125 41.453125 26.515625 42.96875 
Q 25.484375 43.84375 23.78125 43.84375 
Q 21.234375 43.84375 19.625 41.359375 
Q 16.75 37.015625 16.75 29.4375 
L 16.75 27.734375 
z
" id="TimesNewRomanPS-BoldMT-65"/>
       <path d="M 21.484375 62.359375 
L 21.484375 45.65625 
L 32.328125 45.65625 
L 32.328125 40.828125 
L 21.484375 40.828125 
L 21.484375 12.640625 
Q 21.484375 8.6875 21.84375 7.53125 
Q 22.21875 6.390625 23.140625 5.6875 
Q 24.078125 4.984375 24.859375 4.984375 
Q 28.03125 4.984375 30.859375 9.8125 
L 32.328125 8.734375 
Q 28.375 -0.640625 19.484375 -0.640625 
Q 15.140625 -0.640625 12.125 1.78125 
Q 9.125 4.203125 8.296875 7.171875 
Q 7.8125 8.84375 7.8125 16.15625 
L 7.8125 40.828125 
L 1.859375 40.828125 
L 1.859375 42.53125 
Q 8.015625 46.875 12.328125 51.65625 
Q 16.65625 56.453125 19.875 62.359375 
z
" id="TimesNewRomanPS-BoldMT-74"/>
      </defs>
      <g style="fill:#262626;" transform="translate(55.444865 255.066496)rotate(-60)scale(0.1 -0.1)">
       <use xlink:href="#TimesNewRomanPS-BoldMT-32"/>
       <use x="50" xlink:href="#TimesNewRomanPS-BoldMT-20"/>
       <use x="75" xlink:href="#TimesNewRomanPS-BoldMT-73"/>
       <use x="113.916016" xlink:href="#TimesNewRomanPS-BoldMT-65"/>
       <use x="158.300781" xlink:href="#TimesNewRomanPS-BoldMT-74"/>
       <use x="191.601562" xlink:href="#TimesNewRomanPS-BoldMT-73"/>
      </g>
     </g>
    </g>
    <g id="xtick_2">
     <g id="line2d_3">
      <path clip-path="url(#pc155335ca0)" d="M 87.127031 224.790967 
L 87.127031 21.14625 
" style="fill:none;stroke:#ffffff;stroke-linecap:round;"/>
     </g>
     <g id="line2d_4"/>
     <g id="text_2">
      <!-- 1 set -->
      <defs>
       <path d="M 32.5625 67.578125 
L 32.5625 13.421875 
Q 32.5625 7.328125 33.09375 5.640625 
Q 33.640625 3.953125 35.34375 2.875 
Q 37.0625 1.8125 40.828125 1.8125 
L 42.328125 1.8125 
L 42.328125 0 
L 7.46875 0 
L 7.46875 1.8125 
L 9.234375 1.8125 
Q 13.484375 1.8125 15.28125 2.78125 
Q 17.09375 3.765625 17.71875 5.46875 
Q 18.359375 7.171875 18.359375 13.421875 
L 18.359375 47.75 
Q 18.359375 52.34375 17.921875 53.484375 
Q 17.484375 54.640625 16.28125 55.4375 
Q 15.09375 56.25 13.53125 56.25 
Q 11.03125 56.25 7.46875 54.6875 
L 6.59375 56.453125 
L 30.953125 67.578125 
z
" id="TimesNewRomanPS-BoldMT-31"/>
      </defs>
      <g style="fill:#262626;" transform="translate(84.277912 251.695763)rotate(-60)scale(0.1 -0.1)">
       <use xlink:href="#TimesNewRomanPS-BoldMT-31"/>
       <use x="50" xlink:href="#TimesNewRomanPS-BoldMT-20"/>
       <use x="75" xlink:href="#TimesNewRomanPS-BoldMT-73"/>
       <use x="113.916016" xlink:href="#TimesNewRomanPS-BoldMT-65"/>
       <use x="158.300781" xlink:href="#TimesNewRomanPS-BoldMT-74"/>
      </g>
     </g>
    </g>
   </g>
   <g id="matplotlib.axis_2">
    <g id="ytick_1">
     <g id="line2d_5">
      <path clip-path="url(#pc155335ca0)" d="M 45.337031 208.335199 
L 101.057031 208.335199 
" style="fill:none;stroke:#bfbfbf;stroke-linecap:round;stroke-width:0.5;"/>
     </g>
     <g id="line2d_6"/>
     <g id="text_3">
      <!-- 15.0 -->
      <defs>
       <path d="M 15.234375 66.21875 
L 46.234375 66.21875 
L 41.3125 53.609375 
L 15.234375 53.609375 
L 12.75 47.015625 
Q 29.59375 46.390625 38.671875 38.625 
Q 46.140625 32.234375 46.140625 22.703125 
Q 46.140625 16.609375 42.671875 10.765625 
Q 39.203125 4.9375 32.90625 1.78125 
Q 26.609375 -1.375 19.09375 -1.375 
Q 10.984375 -1.375 6.640625 1.65625 
Q 3.609375 3.8125 3.609375 6.546875 
Q 3.609375 8.640625 5.1875 10.25 
Q 6.78125 11.859375 8.890625 11.859375 
Q 10.796875 11.859375 12.75 11.078125 
Q 14.703125 10.296875 19.4375 6.984375 
Q 22.40625 4.9375 24.5625 4.15625 
Q 26.078125 3.5625 27.984375 3.5625 
Q 31.984375 3.5625 34.78125 6.484375 
Q 37.59375 9.421875 37.59375 13.53125 
Q 37.59375 22.125 29 27.484375 
Q 20.40625 32.859375 7.328125 32.859375 
Q 6 32.859375 3.375 32.8125 
z
" id="TimesNewRomanPS-BoldMT-35"/>
       <path d="M 12.5 15.046875 
Q 15.921875 15.046875 18.28125 12.640625 
Q 20.65625 10.25 20.65625 6.890625 
Q 20.65625 3.515625 18.265625 1.140625 
Q 15.875 -1.21875 12.5 -1.21875 
Q 9.125 -1.21875 6.75 1.140625 
Q 4.390625 3.515625 4.390625 6.890625 
Q 4.390625 10.25 6.75 12.640625 
Q 9.125 15.046875 12.5 15.046875 
z
" id="TimesNewRomanPS-BoldMT-2e"/>
       <path d="M 46.34375 33.109375 
Q 46.34375 23.1875 43.5625 14.59375 
Q 41.890625 9.328125 39.078125 5.953125 
Q 36.28125 2.59375 32.71875 0.609375 
Q 29.15625 -1.375 24.953125 -1.375 
Q 20.171875 -1.375 16.3125 1.0625 
Q 12.453125 3.515625 9.46875 8.0625 
Q 7.328125 11.375 5.71875 16.890625 
Q 3.609375 24.359375 3.609375 32.328125 
Q 3.609375 43.109375 6.640625 52.15625 
Q 9.125 59.625 14.203125 63.59375 
Q 19.28125 67.578125 24.953125 67.578125 
Q 30.71875 67.578125 35.71875 63.640625 
Q 40.71875 59.71875 43.0625 53.078125 
Q 46.34375 43.953125 46.34375 33.109375 
z
M 31.296875 33.203125 
Q 31.296875 50.59375 31.109375 53.46875 
Q 30.609375 60.25 28.765625 62.640625 
Q 27.546875 64.203125 24.8125 64.203125 
Q 22.703125 64.203125 21.484375 63.03125 
Q 19.671875 61.328125 19.03125 57 
Q 18.40625 52.6875 18.40625 26.859375 
Q 18.40625 12.796875 19.390625 8.015625 
Q 20.125 4.546875 21.484375 3.375 
Q 22.859375 2.203125 25.09375 2.203125 
Q 27.546875 2.203125 28.765625 3.765625 
Q 30.8125 6.5 31.109375 12.203125 
z
" id="TimesNewRomanPS-BoldMT-30"/>
      </defs>
      <g style="fill:#262626;" transform="translate(20.837031 211.646137)scale(0.1 -0.1)">
       <use xlink:href="#TimesNewRomanPS-BoldMT-31"/>
       <use x="50" xlink:href="#TimesNewRomanPS-BoldMT-35"/>
       <use x="100" xlink:href="#TimesNewRomanPS-BoldMT-2e"/>
       <use x="125" xlink:href="#TimesNewRomanPS-BoldMT-30"/>
      </g>
     </g>
    </g>
    <g id="ytick_2">
     <g id="line2d_7">
      <path clip-path="url(#pc155335ca0)" d="M 45.337031 178.624776 
L 101.057031 178.624776 
" style="fill:none;stroke:#bfbfbf;stroke-linecap:round;stroke-width:0.5;"/>
     </g>
     <g id="line2d_8"/>
     <g id="text_4">
      <!-- 15.5 -->
      <g style="fill:#262626;" transform="translate(20.837031 181.935714)scale(0.1 -0.1)">
       <use xlink:href="#TimesNewRomanPS-BoldMT-31"/>
       <use x="50" xlink:href="#TimesNewRomanPS-BoldMT-35"/>
       <use x="100" xlink:href="#TimesNewRomanPS-BoldMT-2e"/>
       <use x="125" xlink:href="#TimesNewRomanPS-BoldMT-35"/>
      </g>
     </g>
    </g>
    <g id="ytick_3">
     <g id="line2d_9">
      <path clip-path="url(#pc155335ca0)" d="M 45.337031 148.914353 
L 101.057031 148.914353 
" style="fill:none;stroke:#bfbfbf;stroke-linecap:round;stroke-width:0.5;"/>
     </g>
     <g id="line2d_10"/>
     <g id="text_5">
      <!-- 16.0 -->
      <defs>
       <path d="M 46.96875 67.578125 
L 46.96875 66.21875 
Q 38.140625 63.96875 32.78125 60.421875 
Q 27.4375 56.890625 24.328125 51.828125 
Q 21.234375 46.78125 19.53125 39.3125 
Q 21.6875 40.765625 23.09375 41.21875 
Q 26.265625 42.1875 29.5 42.1875 
Q 36.921875 42.1875 41.875 36.78125 
Q 46.828125 31.390625 46.828125 22.078125 
Q 46.828125 15.53125 44.140625 10.0625 
Q 41.453125 4.59375 36.515625 1.609375 
Q 31.59375 -1.375 25.984375 -1.375 
Q 19.875 -1.375 14.6875 1.96875 
Q 9.515625 5.328125 6.609375 11.765625 
Q 3.71875 18.21875 3.71875 25.78125 
Q 3.71875 36.921875 9.0625 46.515625 
Q 14.40625 56.109375 24.234375 61.796875 
Q 34.078125 67.484375 46.96875 67.578125 
z
M 18.890625 35.359375 
Q 18.5 28.609375 18.5 25.484375 
Q 18.5 18.75 19.796875 12.453125 
Q 21.09375 6.15625 23.34375 3.609375 
Q 24.953125 1.8125 27.15625 1.8125 
Q 29.390625 1.8125 31.140625 4.421875 
Q 32.90625 7.03125 32.90625 15.046875 
Q 32.90625 28.515625 29.640625 33.640625 
Q 27.546875 36.96875 23.96875 36.96875 
Q 22.015625 36.96875 18.890625 35.359375 
z
" id="TimesNewRomanPS-BoldMT-36"/>
      </defs>
      <g style="fill:#262626;" transform="translate(20.837031 152.225291)scale(0.1 -0.1)">
       <use xlink:href="#TimesNewRomanPS-BoldMT-31"/>
       <use x="50" xlink:href="#TimesNewRomanPS-BoldMT-36"/>
       <use x="100" xlink:href="#TimesNewRomanPS-BoldMT-2e"/>
       <use x="125" xlink:href="#TimesNewRomanPS-BoldMT-30"/>
      </g>
     </g>
    </g>
    <g id="ytick_4">
     <g id="line2d_11">
      <path clip-path="url(#pc155335ca0)" d="M 45.337031 119.20393 
L 101.057031 119.20393 
" style="fill:none;stroke:#bfbfbf;stroke-linecap:round;stroke-width:0.5;"/>
     </g>
     <g id="line2d_12"/>
     <g id="text_6">
      <!-- 16.5 -->
      <g style="fill:#262626;" transform="translate(20.837031 122.514868)scale(0.1 -0.1)">
       <use xlink:href="#TimesNewRomanPS-BoldMT-31"/>
       <use x="50" xlink:href="#TimesNewRomanPS-BoldMT-36"/>
       <use x="100" xlink:href="#TimesNewRomanPS-BoldMT-2e"/>
       <use x="125" xlink:href="#TimesNewRomanPS-BoldMT-35"/>
      </g>
     </g>
    </g>
    <g id="ytick_5">
     <g id="line2d_13">
      <path clip-path="url(#pc155335ca0)" d="M 45.337031 89.493507 
L 101.057031 89.493507 
" style="fill:none;stroke:#bfbfbf;stroke-linecap:round;stroke-width:0.5;"/>
     </g>
     <g id="line2d_14"/>
     <g id="text_7">
      <!-- 17.0 -->
      <defs>
       <path d="M 17.71875 -1.375 
L 35.75 53.265625 
L 22.015625 53.265625 
Q 13.96875 53.265625 9.90625 51.171875 
Q 7.078125 49.703125 5.21875 45.65625 
L 3.375 45.65625 
L 8.15625 66.21875 
L 47.609375 66.21875 
L 25.390625 -1.375 
z
" id="TimesNewRomanPS-BoldMT-37"/>
      </defs>
      <g style="fill:#262626;" transform="translate(20.837031 92.804445)scale(0.1 -0.1)">
       <use xlink:href="#TimesNewRomanPS-BoldMT-31"/>
       <use x="50" xlink:href="#TimesNewRomanPS-BoldMT-37"/>
       <use x="100" xlink:href="#TimesNewRomanPS-BoldMT-2e"/>
       <use x="125" xlink:href="#TimesNewRomanPS-BoldMT-30"/>
      </g>
     </g>
    </g>
    <g id="ytick_6">
     <g id="line2d_15">
      <path clip-path="url(#pc155335ca0)" d="M 45.337031 59.783084 
L 101.057031 59.783084 
" style="fill:none;stroke:#bfbfbf;stroke-linecap:round;stroke-width:0.5;"/>
     </g>
     <g id="line2d_16"/>
     <g id="text_8">
      <!-- 17.5 -->
      <g style="fill:#262626;" transform="translate(20.837031 63.094022)scale(0.1 -0.1)">
       <use xlink:href="#TimesNewRomanPS-BoldMT-31"/>
       <use x="50" xlink:href="#TimesNewRomanPS-BoldMT-37"/>
       <use x="100" xlink:href="#TimesNewRomanPS-BoldMT-2e"/>
       <use x="125" xlink:href="#TimesNewRomanPS-BoldMT-35"/>
      </g>
     </g>
    </g>
    <g id="ytick_7">
     <g id="line2d_17">
      <path clip-path="url(#pc155335ca0)" d="M 45.337031 30.072661 
L 101.057031 30.072661 
" style="fill:none;stroke:#bfbfbf;stroke-linecap:round;stroke-width:0.5;"/>
     </g>
     <g id="line2d_18"/>
     <g id="text_9">
      <!-- 18.0 -->
      <defs>
       <path d="M 34.078125 37.40625 
Q 41.0625 32.28125 43.765625 27.859375 
Q 46.484375 23.4375 46.484375 17.71875 
Q 46.484375 9.71875 40.453125 4.171875 
Q 34.421875 -1.375 24.078125 -1.375 
Q 14.265625 -1.375 8.890625 3.453125 
Q 3.515625 8.296875 3.515625 15.28125 
Q 3.515625 20.609375 6.609375 24.609375 
Q 9.71875 28.609375 16.9375 31.9375 
Q 9.078125 37.9375 6.859375 41.75 
Q 4.640625 45.5625 4.640625 50.59375 
Q 4.640625 57.234375 10.28125 62.28125 
Q 15.921875 67.328125 25.734375 67.328125 
Q 35.203125 67.328125 40.296875 62.859375 
Q 45.40625 58.40625 45.40625 52.15625 
Q 45.40625 47.46875 42.640625 43.875 
Q 39.890625 40.28125 34.078125 37.40625 
z
M 30.375 39.890625 
Q 32.171875 42.328125 33.046875 45.359375 
Q 33.9375 48.390625 33.9375 52 
Q 33.9375 58.34375 31.203125 61.71875 
Q 29.15625 64.3125 25.53125 64.3125 
Q 22.265625 64.3125 19.96875 61.9375 
Q 17.671875 59.578125 17.671875 56.0625 
Q 17.671875 52.484375 20.234375 48.65625 
Q 22.796875 44.828125 30.375 39.890625 
z
M 20.609375 29.59375 
Q 19.09375 28.21875 18.453125 27.09375 
Q 17.484375 25.390625 16.703125 22.109375 
Q 15.921875 18.84375 15.921875 15.28125 
Q 15.921875 10.6875 17.09375 7.59375 
Q 18.265625 4.5 20.4375 3.125 
Q 22.609375 1.765625 24.90625 1.765625 
Q 28.46875 1.765625 30.90625 4.375 
Q 33.34375 6.984375 33.34375 11.53125 
Q 33.34375 21 20.609375 29.59375 
z
" id="TimesNewRomanPS-BoldMT-38"/>
      </defs>
      <g style="fill:#262626;" transform="translate(20.837031 33.383599)scale(0.1 -0.1)">
       <use xlink:href="#TimesNewRomanPS-BoldMT-31"/>
       <use x="50" xlink:href="#TimesNewRomanPS-BoldMT-38"/>
       <use x="100" xlink:href="#TimesNewRomanPS-BoldMT-2e"/>
       <use x="125" xlink:href="#TimesNewRomanPS-BoldMT-30"/>
      </g>
     </g>
    </g>
    <g id="text_10">
     <!-- RMSE -->
     <defs>
      <path d="M 26.5625 30.171875 
L 26.5625 11.625 
Q 26.5625 6.25 27.21875 4.859375 
Q 27.875 3.46875 29.53125 2.640625 
Q 31.203125 1.8125 35.75 1.8125 
L 35.75 0 
L 1.859375 0 
L 1.859375 1.8125 
Q 6.453125 1.8125 8.078125 2.65625 
Q 9.71875 3.515625 10.375 4.875 
Q 11.03125 6.25 11.03125 11.625 
L 11.03125 54.59375 
Q 11.03125 59.96875 10.375 61.359375 
Q 9.71875 62.75 8.046875 63.578125 
Q 6.390625 64.40625 1.859375 64.40625 
L 1.859375 66.21875 
L 32.625 66.21875 
Q 44.625 66.21875 50.1875 64.546875 
Q 55.765625 62.890625 59.28125 58.421875 
Q 62.796875 53.953125 62.796875 47.953125 
Q 62.796875 40.625 57.515625 35.84375 
Q 54.15625 32.8125 48.09375 31.296875 
L 64.015625 8.890625 
Q 67.140625 4.546875 68.453125 3.46875 
Q 70.453125 1.953125 73.09375 1.8125 
L 73.09375 0 
L 52.25 0 
L 30.90625 30.171875 
z
M 26.5625 62.640625 
L 26.5625 33.640625 
L 29.34375 33.640625 
Q 36.140625 33.640625 39.5 34.890625 
Q 42.875 36.140625 44.796875 39.375 
Q 46.734375 42.625 46.734375 47.859375 
Q 46.734375 55.421875 43.1875 59.03125 
Q 39.65625 62.640625 31.78125 62.640625 
z
" id="TimesNewRomanPS-BoldMT-52"/>
      <path d="M 47.65625 22.5625 
L 65.625 66.21875 
L 92.578125 66.21875 
L 92.578125 64.40625 
L 90.4375 64.40625 
Q 87.5 64.40625 85.75 63.375 
Q 84.515625 62.703125 83.796875 61.078125 
Q 83.25 59.90625 83.25 54.984375 
L 83.25 11.328125 
Q 83.25 6.25 83.78125 4.984375 
Q 84.328125 3.71875 85.984375 2.765625 
Q 87.640625 1.8125 90.4375 1.8125 
L 92.578125 1.8125 
L 92.578125 0 
L 58.015625 0 
L 58.015625 1.8125 
L 60.15625 1.8125 
Q 63.09375 1.8125 64.84375 2.828125 
Q 66.0625 3.515625 66.796875 5.171875 
Q 67.328125 6.34375 67.328125 11.328125 
L 67.328125 60.40625 
L 41.9375 0 
L 40.765625 0 
L 14.984375 59.96875 
L 14.984375 13.328125 
Q 14.984375 8.453125 15.234375 7.328125 
Q 15.875 4.890625 18 3.34375 
Q 20.125 1.8125 24.65625 1.8125 
L 24.65625 0 
L 2 0 
L 2 1.8125 
L 2.6875 1.8125 
Q 4.890625 1.765625 6.78125 2.515625 
Q 8.6875 3.265625 9.65625 4.53125 
Q 10.640625 5.8125 11.1875 8.109375 
Q 11.28125 8.640625 11.28125 13.09375 
L 11.28125 54.984375 
Q 11.28125 60.015625 10.734375 61.25 
Q 10.203125 62.5 8.546875 63.453125 
Q 6.890625 64.40625 4.109375 64.40625 
L 2 64.40625 
L 2 66.21875 
L 29.046875 66.21875 
z
" id="TimesNewRomanPS-BoldMT-4d"/>
      <path d="M 46.96875 67.71875 
L 47.515625 45.65625 
L 45.515625 45.65625 
Q 44.09375 53.953125 38.546875 59 
Q 33.015625 64.0625 26.5625 64.0625 
Q 21.578125 64.0625 18.671875 61.390625 
Q 15.765625 58.734375 15.765625 55.28125 
Q 15.765625 53.078125 16.796875 51.375 
Q 18.21875 49.078125 21.34375 46.828125 
Q 23.640625 45.21875 31.9375 41.109375 
Q 43.5625 35.40625 47.609375 30.328125 
Q 51.609375 25.25 51.609375 18.703125 
Q 51.609375 10.40625 45.140625 4.421875 
Q 38.671875 -1.5625 28.71875 -1.5625 
Q 25.59375 -1.5625 22.796875 -0.921875 
Q 20.015625 -0.296875 15.828125 1.46875 
Q 13.484375 2.4375 11.96875 2.4375 
Q 10.6875 2.4375 9.265625 1.453125 
Q 7.859375 0.484375 6.984375 -1.515625 
L 5.171875 -1.515625 
L 5.171875 23.484375 
L 6.984375 23.484375 
Q 9.125 12.9375 15.25 7.390625 
Q 21.390625 1.859375 28.46875 1.859375 
Q 33.9375 1.859375 37.1875 4.828125 
Q 40.4375 7.8125 40.4375 11.765625 
Q 40.4375 14.109375 39.1875 16.296875 
Q 37.9375 18.5 35.390625 20.484375 
Q 32.859375 22.46875 26.421875 25.640625 
Q 17.390625 30.078125 13.421875 33.203125 
Q 9.46875 36.328125 7.34375 40.1875 
Q 5.21875 44.046875 5.21875 48.6875 
Q 5.21875 56.59375 11.03125 62.15625 
Q 16.84375 67.71875 25.6875 67.71875 
Q 28.90625 67.71875 31.9375 66.9375 
Q 34.234375 66.359375 37.53125 64.765625 
Q 40.828125 63.1875 42.140625 63.1875 
Q 43.40625 63.1875 44.140625 63.96875 
Q 44.875 64.75 45.515625 67.71875 
z
" id="TimesNewRomanPS-BoldMT-53"/>
      <path d="M 27.25 62.40625 
L 27.25 35.453125 
L 28.5625 35.453125 
Q 34.859375 35.453125 37.6875 39.40625 
Q 40.53125 43.359375 41.3125 51.078125 
L 43.171875 51.078125 
L 43.171875 16.40625 
L 41.3125 16.40625 
Q 40.71875 22.078125 38.84375 25.6875 
Q 36.96875 29.296875 34.46875 30.53125 
Q 31.984375 31.78125 27.25 31.78125 
L 27.25 13.140625 
Q 27.25 7.671875 27.703125 6.4375 
Q 28.171875 5.21875 29.4375 4.4375 
Q 30.71875 3.65625 33.546875 3.65625 
L 37.5 3.65625 
Q 46.78125 3.65625 52.359375 7.953125 
Q 57.953125 12.25 60.40625 21.046875 
L 62.203125 21.046875 
L 59.234375 0 
L 2 0 
L 2 1.8125 
L 4.203125 1.8125 
Q 7.078125 1.8125 8.84375 2.828125 
Q 10.109375 3.515625 10.796875 5.171875 
Q 11.328125 6.34375 11.328125 11.328125 
L 11.328125 54.890625 
Q 11.328125 59.375 11.078125 60.40625 
Q 10.59375 62.109375 9.28125 63.03125 
Q 7.421875 64.40625 4.203125 64.40625 
L 2 64.40625 
L 2 66.21875 
L 57.421875 66.21875 
L 57.421875 46.625 
L 55.5625 46.625 
Q 54.15625 53.8125 51.59375 56.9375 
Q 49.03125 60.0625 44.34375 61.53125 
Q 41.609375 62.40625 34.078125 62.40625 
z
" id="TimesNewRomanPS-BoldMT-45"/>
     </defs>
     <g style="fill:#262626;" transform="translate(14.484063 138.859312)rotate(-90)scale(0.11 -0.11)">
      <use xlink:href="#TimesNewRomanPS-BoldMT-52"/>
      <use x="72.216797" xlink:href="#TimesNewRomanPS-BoldMT-4d"/>
      <use x="166.601562" xlink:href="#TimesNewRomanPS-BoldMT-53"/>
      <use x="222.216797" xlink:href="#TimesNewRomanPS-BoldMT-45"/>
     </g>
    </g>
   </g>
   <g id="line2d_19">
    <path clip-path="url(#pc155335ca0)" d="M 57.177531 213.420351 
L 61.356531 213.420351 
L 61.356531 210.467069 
L 57.177531 210.467069 
L 57.177531 213.420351 
" style="fill:none;stroke:#000000;stroke-linecap:round;"/>
   </g>
   <g id="line2d_20">
    <path clip-path="url(#pc155335ca0)" d="M 59.267031 213.420351 
L 59.267031 215.534389 
" style="fill:none;stroke:#000000;stroke-linecap:round;"/>
   </g>
   <g id="line2d_21">
    <path clip-path="url(#pc155335ca0)" d="M 59.267031 210.467069 
L 59.267031 207.760983 
" style="fill:none;stroke:#000000;stroke-linecap:round;"/>
   </g>
   <g id="line2d_22">
    <path clip-path="url(#pc155335ca0)" d="M 58.222281 215.534389 
L 60.311781 215.534389 
" style="fill:none;stroke:#000000;stroke-linecap:round;"/>
   </g>
   <g id="line2d_23">
    <path clip-path="url(#pc155335ca0)" d="M 58.222281 207.760983 
L 60.311781 207.760983 
" style="fill:none;stroke:#000000;stroke-linecap:round;"/>
   </g>
   <g id="line2d_24">
    <path clip-path="url(#pc155335ca0)" d="M 85.037531 49.982466 
L 89.216531 49.982466 
L 89.216531 38.56429 
L 85.037531 38.56429 
L 85.037531 49.982466 
" style="fill:none;stroke:#000000;stroke-linecap:round;"/>
   </g>
   <g id="line2d_25">
    <path clip-path="url(#pc155335ca0)" d="M 87.127031 49.982466 
L 87.127031 54.499563 
" style="fill:none;stroke:#000000;stroke-linecap:round;"/>
   </g>
   <g id="line2d_26">
    <path clip-path="url(#pc155335ca0)" d="M 87.127031 38.56429 
L 87.127031 30.402828 
" style="fill:none;stroke:#000000;stroke-linecap:round;"/>
   </g>
   <g id="line2d_27">
    <path clip-path="url(#pc155335ca0)" d="M 86.082281 54.499563 
L 88.171781 54.499563 
" style="fill:none;stroke:#000000;stroke-linecap:round;"/>
   </g>
   <g id="line2d_28">
    <path clip-path="url(#pc155335ca0)" d="M 86.082281 30.402828 
L 88.171781 30.402828 
" style="fill:none;stroke:#000000;stroke-linecap:round;"/>
   </g>
   <g id="line2d_29">
    <path clip-path="url(#pc155335ca0)" d="M 57.177531 212.186205 
L 61.356531 212.186205 
" style="fill:none;stroke:#ff0000;stroke-linecap:round;"/>
   </g>
   <g id="line2d_30">
    <path clip-path="url(#pc155335ca0)" d="M 85.037531 47.03546 
L 89.216531 47.03546 
" style="fill:none;stroke:#ff0000;stroke-linecap:round;"/>
   </g>
   <g id="patch_3">
    <path d="M 45.337031 224.790967 
L 45.337031 21.14625 
" style="fill:none;"/>
   </g>
   <g id="patch_4">
    <path d="M 101.057031 224.790967 
L 101.057031 21.14625 
" style="fill:none;"/>
   </g>
   <g id="patch_5">
    <path d="M 45.337031 224.790967 
L 101.057031 224.790967 
" style="fill:none;"/>
   </g>
   <g id="patch_6">
    <path d="M 45.337031 21.14625 
L 101.057031 21.14625 
" style="fill:none;"/>
   </g>
   <g id="text_11">
    <!-- FD001 -->
    <defs>
     <path d="M 27.484375 62.40625 
L 27.484375 35.203125 
L 29.390625 35.203125 
Q 33.796875 35.203125 36.578125 36.515625 
Q 39.359375 37.84375 41.28125 40.96875 
Q 43.21875 44.09375 43.796875 49.421875 
L 45.515625 49.421875 
L 45.515625 16.15625 
L 43.796875 16.15625 
Q 42.875 25.59375 38.75 28.59375 
Q 34.625 31.59375 29.390625 31.59375 
L 27.484375 31.59375 
L 27.484375 11.328125 
Q 27.484375 6.25 28.046875 4.984375 
Q 28.609375 3.71875 30.25 2.765625 
Q 31.890625 1.8125 34.671875 1.8125 
L 36.859375 1.8125 
L 36.859375 0 
L 2.25 0 
L 2.25 1.8125 
L 4.4375 1.8125 
Q 7.328125 1.8125 9.078125 2.828125 
Q 10.359375 3.515625 11.03125 5.171875 
Q 11.578125 6.34375 11.578125 11.328125 
L 11.578125 54.890625 
Q 11.578125 59.96875 11.03125 61.234375 
Q 10.5 62.5 8.859375 63.453125 
Q 7.234375 64.40625 4.4375 64.40625 
L 2.25 64.40625 
L 2.25 66.21875 
L 58.109375 66.21875 
L 58.109375 47.21875 
L 56.109375 47.21875 
Q 55.421875 53.90625 52.609375 57.125 
Q 49.8125 60.359375 44.484375 61.671875 
Q 41.546875 62.40625 33.640625 62.40625 
z
" id="TimesNewRomanPS-BoldMT-46"/>
     <path d="M 1.3125 0 
L 1.3125 1.8125 
L 3.515625 1.8125 
Q 6.390625 1.8125 7.921875 2.703125 
Q 9.46875 3.609375 10.203125 5.171875 
Q 10.640625 6.203125 10.640625 11.328125 
L 10.640625 54.890625 
Q 10.640625 59.96875 10.109375 61.234375 
Q 9.578125 62.5 7.9375 63.453125 
Q 6.296875 64.40625 3.515625 64.40625 
L 1.3125 64.40625 
L 1.3125 66.21875 
L 30.953125 66.21875 
Q 42.828125 66.21875 50.046875 62.984375 
Q 58.890625 59.03125 63.453125 51.015625 
Q 68.015625 43.015625 68.015625 32.90625 
Q 68.015625 25.921875 65.765625 20.03125 
Q 63.53125 14.15625 59.953125 10.328125 
Q 56.390625 6.5 51.734375 4.171875 
Q 47.078125 1.859375 40.328125 0.59375 
Q 37.359375 0 30.953125 0 
z
M 26.5625 62.453125 
L 26.5625 10.796875 
Q 26.5625 6.6875 26.953125 5.75 
Q 27.34375 4.828125 28.265625 4.34375 
Q 29.59375 3.609375 32.078125 3.609375 
Q 40.234375 3.609375 44.53125 9.1875 
Q 50.390625 16.703125 50.390625 32.515625 
Q 50.390625 45.265625 46.390625 52.875 
Q 43.21875 58.84375 38.234375 60.984375 
Q 34.71875 62.5 26.5625 62.453125 
z
" id="TimesNewRomanPS-BoldMT-44"/>
    </defs>
    <g style="fill:#262626;" transform="translate(56.199219 15.14625)scale(0.12 -0.12)">
     <use xlink:href="#TimesNewRomanPS-BoldMT-46"/>
     <use x="61.083984" xlink:href="#TimesNewRomanPS-BoldMT-44"/>
     <use x="133.300781" xlink:href="#TimesNewRomanPS-BoldMT-30"/>
     <use x="183.300781" xlink:href="#TimesNewRomanPS-BoldMT-30"/>
     <use x="233.300781" xlink:href="#TimesNewRomanPS-BoldMT-31"/>
    </g>
   </g>
  </g>
  <g id="axes_2">
   <g id="patch_7">
    <path d="M 145.017031 224.790967 
L 200.737031 224.790967 
L 200.737031 21.14625 
L 145.017031 21.14625 
z
" style="fill:#ffffff;"/>
   </g>
   <g id="matplotlib.axis_3">
    <g id="xtick_3">
     <g id="line2d_31">
      <path clip-path="url(#pa29a8a0e5f)" d="M 158.947031 224.790967 
L 158.947031 21.14625 
" style="fill:none;stroke:#ffffff;stroke-linecap:round;"/>
     </g>
     <g id="line2d_32"/>
     <g id="text_12">
      <!-- 2 sets -->
      <g style="fill:#262626;" transform="translate(155.124865 255.066496)rotate(-60)scale(0.1 -0.1)">
       <use xlink:href="#TimesNewRomanPS-BoldMT-32"/>
       <use x="50" xlink:href="#TimesNewRomanPS-BoldMT-20"/>
       <use x="75" xlink:href="#TimesNewRomanPS-BoldMT-73"/>
       <use x="113.916016" xlink:href="#TimesNewRomanPS-BoldMT-65"/>
       <use x="158.300781" xlink:href="#TimesNewRomanPS-BoldMT-74"/>
       <use x="191.601562" xlink:href="#TimesNewRomanPS-BoldMT-73"/>
      </g>
     </g>
    </g>
    <g id="xtick_4">
     <g id="line2d_33">
      <path clip-path="url(#pa29a8a0e5f)" d="M 186.807031 224.790967 
L 186.807031 21.14625 
" style="fill:none;stroke:#ffffff;stroke-linecap:round;"/>
     </g>
     <g id="line2d_34"/>
     <g id="text_13">
      <!-- 1 set -->
      <g style="fill:#262626;" transform="translate(183.957912 251.695763)rotate(-60)scale(0.1 -0.1)">
       <use xlink:href="#TimesNewRomanPS-BoldMT-31"/>
       <use x="50" xlink:href="#TimesNewRomanPS-BoldMT-20"/>
       <use x="75" xlink:href="#TimesNewRomanPS-BoldMT-73"/>
       <use x="113.916016" xlink:href="#TimesNewRomanPS-BoldMT-65"/>
       <use x="158.300781" xlink:href="#TimesNewRomanPS-BoldMT-74"/>
      </g>
     </g>
    </g>
   </g>
   <g id="matplotlib.axis_4">
    <g id="ytick_8">
     <g id="line2d_35">
      <path clip-path="url(#pa29a8a0e5f)" d="M 145.017031 188.543508 
L 200.737031 188.543508 
" style="fill:none;stroke:#bfbfbf;stroke-linecap:round;stroke-width:0.5;"/>
     </g>
     <g id="line2d_36"/>
     <g id="text_14">
      <!-- 29.0 -->
      <defs>
       <path d="M 3.078125 -1.375 
L 3.078125 0 
Q 11.1875 1.859375 16.828125 5.46875 
Q 22.46875 9.078125 25.75 14.40625 
Q 29.046875 19.734375 30.375 26.65625 
Q 27.34375 25.09375 25.21875 24.484375 
Q 23.09375 23.875 20.75 23.875 
Q 13.234375 23.875 8.21875 29.296875 
Q 3.21875 34.71875 3.21875 44.140625 
Q 3.21875 50.6875 5.921875 56.125 
Q 8.640625 61.578125 13.671875 64.578125 
Q 18.703125 67.578125 24.125 67.578125 
Q 29.9375 67.578125 35.109375 64.25 
Q 40.28125 60.9375 43.359375 54.640625 
Q 46.4375 48.34375 46.4375 40.28125 
Q 46.4375 29.828125 41.421875 20.25 
Q 36.421875 10.6875 26.515625 4.90625 
Q 16.609375 -0.875 3.078125 -1.375 
z
M 31.109375 30.765625 
Q 31.59375 36.234375 31.59375 40.375 
Q 31.59375 49.265625 29.546875 56.9375 
Q 28.375 61.1875 26.078125 63.1875 
Q 24.859375 64.265625 22.90625 64.265625 
Q 20.453125 64.265625 19.09375 62.15625 
Q 17.1875 59.28125 17.1875 51.171875 
Q 17.1875 37.640625 20.40625 32.515625 
Q 22.515625 29.203125 26.078125 29.203125 
Q 27.984375 29.203125 31.109375 30.765625 
z
" id="TimesNewRomanPS-BoldMT-39"/>
      </defs>
      <g style="fill:#262626;" transform="translate(120.517031 191.854446)scale(0.1 -0.1)">
       <use xlink:href="#TimesNewRomanPS-BoldMT-32"/>
       <use x="50" xlink:href="#TimesNewRomanPS-BoldMT-39"/>
       <use x="100" xlink:href="#TimesNewRomanPS-BoldMT-2e"/>
       <use x="125" xlink:href="#TimesNewRomanPS-BoldMT-30"/>
      </g>
     </g>
    </g>
    <g id="ytick_9">
     <g id="line2d_37">
      <path clip-path="url(#pa29a8a0e5f)" d="M 145.017031 146.934668 
L 200.737031 146.934668 
" style="fill:none;stroke:#bfbfbf;stroke-linecap:round;stroke-width:0.5;"/>
     </g>
     <g id="line2d_38"/>
     <g id="text_15">
      <!-- 29.5 -->
      <g style="fill:#262626;" transform="translate(120.517031 150.245606)scale(0.1 -0.1)">
       <use xlink:href="#TimesNewRomanPS-BoldMT-32"/>
       <use x="50" xlink:href="#TimesNewRomanPS-BoldMT-39"/>
       <use x="100" xlink:href="#TimesNewRomanPS-BoldMT-2e"/>
       <use x="125" xlink:href="#TimesNewRomanPS-BoldMT-35"/>
      </g>
     </g>
    </g>
    <g id="ytick_10">
     <g id="line2d_39">
      <path clip-path="url(#pa29a8a0e5f)" d="M 145.017031 105.325828 
L 200.737031 105.325828 
" style="fill:none;stroke:#bfbfbf;stroke-linecap:round;stroke-width:0.5;"/>
     </g>
     <g id="line2d_40"/>
     <g id="text_16">
      <!-- 30.0 -->
      <defs>
       <path d="M 14.796875 33.203125 
L 14.796875 34.90625 
Q 20.359375 36.53125 22.5 37.921875 
Q 24.65625 39.3125 26.21875 42.15625 
Q 27.78125 45.015625 27.78125 47.953125 
Q 27.78125 52 24.828125 54.90625 
Q 21.875 57.8125 17.484375 57.8125 
Q 10.640625 57.8125 5.859375 50.59375 
L 4.046875 51.21875 
Q 7.5625 59.375 13.0625 63.46875 
Q 18.5625 67.578125 25.296875 67.578125 
Q 32.171875 67.578125 36.640625 63.375 
Q 41.109375 59.1875 41.109375 53.5625 
Q 41.109375 49.90625 39.03125 46.5 
Q 36.96875 43.109375 32.515625 40.53125 
Q 38.234375 37.75 41.234375 33.671875 
Q 44.234375 29.59375 44.234375 23.4375 
Q 44.234375 13.09375 36.734375 5.828125 
Q 29.25 -1.421875 16.65625 -1.421875 
Q 8.25 -1.421875 4.390625 1.375 
Q 1.609375 3.328125 1.609375 6.390625 
Q 1.609375 8.640625 3.21875 10.21875 
Q 4.828125 11.8125 6.9375 11.8125 
Q 8.546875 11.8125 9.96875 11.140625 
Q 10.75 10.75 15.5 6.859375 
Q 20.265625 2.984375 24.421875 2.984375 
Q 28.03125 2.984375 30.609375 5.828125 
Q 33.203125 8.6875 33.203125 13.09375 
Q 33.203125 19.78125 28.515625 25.421875 
Q 23.828125 31.0625 14.796875 33.203125 
z
" id="TimesNewRomanPS-BoldMT-33"/>
      </defs>
      <g style="fill:#262626;" transform="translate(120.517031 108.636765)scale(0.1 -0.1)">
       <use xlink:href="#TimesNewRomanPS-BoldMT-33"/>
       <use x="50" xlink:href="#TimesNewRomanPS-BoldMT-30"/>
       <use x="100" xlink:href="#TimesNewRomanPS-BoldMT-2e"/>
       <use x="125" xlink:href="#TimesNewRomanPS-BoldMT-30"/>
      </g>
     </g>
    </g>
    <g id="ytick_11">
     <g id="line2d_41">
      <path clip-path="url(#pa29a8a0e5f)" d="M 145.017031 63.716988 
L 200.737031 63.716988 
" style="fill:none;stroke:#bfbfbf;stroke-linecap:round;stroke-width:0.5;"/>
     </g>
     <g id="line2d_42"/>
     <g id="text_17">
      <!-- 30.5 -->
      <g style="fill:#262626;" transform="translate(120.517031 67.027925)scale(0.1 -0.1)">
       <use xlink:href="#TimesNewRomanPS-BoldMT-33"/>
       <use x="50" xlink:href="#TimesNewRomanPS-BoldMT-30"/>
       <use x="100" xlink:href="#TimesNewRomanPS-BoldMT-2e"/>
       <use x="125" xlink:href="#TimesNewRomanPS-BoldMT-35"/>
      </g>
     </g>
    </g>
    <g id="ytick_12">
     <g id="line2d_43">
      <path clip-path="url(#pa29a8a0e5f)" d="M 145.017031 22.108147 
L 200.737031 22.108147 
" style="fill:none;stroke:#bfbfbf;stroke-linecap:round;stroke-width:0.5;"/>
     </g>
     <g id="line2d_44"/>
     <g id="text_18">
      <!-- 31.0 -->
      <g style="fill:#262626;" transform="translate(120.517031 25.419085)scale(0.1 -0.1)">
       <use xlink:href="#TimesNewRomanPS-BoldMT-33"/>
       <use x="50" xlink:href="#TimesNewRomanPS-BoldMT-31"/>
       <use x="100" xlink:href="#TimesNewRomanPS-BoldMT-2e"/>
       <use x="125" xlink:href="#TimesNewRomanPS-BoldMT-30"/>
      </g>
     </g>
    </g>
   </g>
   <g id="line2d_45">
    <path clip-path="url(#pa29a8a0e5f)" d="M 156.857531 186.46368 
L 161.036531 186.46368 
L 161.036531 115.590198 
L 156.857531 115.590198 
L 156.857531 186.46368 
" style="fill:none;stroke:#000000;stroke-linecap:round;"/>
   </g>
   <g id="line2d_46">
    <path clip-path="url(#pa29a8a0e5f)" d="M 158.947031 186.46368 
L 158.947031 215.534389 
" style="fill:none;stroke:#000000;stroke-linecap:round;"/>
   </g>
   <g id="line2d_47">
    <path clip-path="url(#pa29a8a0e5f)" d="M 158.947031 115.590198 
L 158.947031 66.187225 
" style="fill:none;stroke:#000000;stroke-linecap:round;"/>
   </g>
   <g id="line2d_48">
    <path clip-path="url(#pa29a8a0e5f)" d="M 157.902281 215.534389 
L 159.991781 215.534389 
" style="fill:none;stroke:#000000;stroke-linecap:round;"/>
   </g>
   <g id="line2d_49">
    <path clip-path="url(#pa29a8a0e5f)" d="M 157.902281 66.187225 
L 159.991781 66.187225 
" style="fill:none;stroke:#000000;stroke-linecap:round;"/>
   </g>
   <g id="line2d_50">
    <path clip-path="url(#pa29a8a0e5f)" d="M 184.717531 130.871823 
L 188.896531 130.871823 
L 188.896531 80.432813 
L 184.717531 80.432813 
L 184.717531 130.871823 
" style="fill:none;stroke:#000000;stroke-linecap:round;"/>
   </g>
   <g id="line2d_51">
    <path clip-path="url(#pa29a8a0e5f)" d="M 186.807031 130.871823 
L 186.807031 148.142578 
" style="fill:none;stroke:#000000;stroke-linecap:round;"/>
   </g>
   <g id="line2d_52">
    <path clip-path="url(#pa29a8a0e5f)" d="M 186.807031 80.432813 
L 186.807031 30.402828 
" style="fill:none;stroke:#000000;stroke-linecap:round;"/>
   </g>
   <g id="line2d_53">
    <path clip-path="url(#pa29a8a0e5f)" d="M 185.762281 148.142578 
L 187.851781 148.142578 
" style="fill:none;stroke:#000000;stroke-linecap:round;"/>
   </g>
   <g id="line2d_54">
    <path clip-path="url(#pa29a8a0e5f)" d="M 185.762281 30.402828 
L 187.851781 30.402828 
" style="fill:none;stroke:#000000;stroke-linecap:round;"/>
   </g>
   <g id="line2d_55">
    <path clip-path="url(#pa29a8a0e5f)" d="M 156.857531 170.52509 
L 161.036531 170.52509 
" style="fill:none;stroke:#ff0000;stroke-linecap:round;"/>
   </g>
   <g id="line2d_56">
    <path clip-path="url(#pa29a8a0e5f)" d="M 184.717531 117.189409 
L 188.896531 117.189409 
" style="fill:none;stroke:#ff0000;stroke-linecap:round;"/>
   </g>
   <g id="patch_8">
    <path d="M 145.017031 224.790967 
L 145.017031 21.14625 
" style="fill:none;"/>
   </g>
   <g id="patch_9">
    <path d="M 200.737031 224.790967 
L 200.737031 21.14625 
" style="fill:none;"/>
   </g>
   <g id="patch_10">
    <path d="M 145.017031 224.790967 
L 200.737031 224.790967 
" style="fill:none;"/>
   </g>
   <g id="patch_11">
    <path d="M 145.017031 21.14625 
L 200.737031 21.14625 
" style="fill:none;"/>
   </g>
   <g id="text_19">
    <!-- FD002 -->
    <g style="fill:#262626;" transform="translate(155.879219 15.14625)scale(0.12 -0.12)">
     <use xlink:href="#TimesNewRomanPS-BoldMT-46"/>
     <use x="61.083984" xlink:href="#TimesNewRomanPS-BoldMT-44"/>
     <use x="133.300781" xlink:href="#TimesNewRomanPS-BoldMT-30"/>
     <use x="183.300781" xlink:href="#TimesNewRomanPS-BoldMT-30"/>
     <use x="233.300781" xlink:href="#TimesNewRomanPS-BoldMT-32"/>
    </g>
   </g>
  </g>
  <g id="axes_3">
   <g id="patch_12">
    <path d="M 244.697031 224.790967 
L 300.417031 224.790967 
L 300.417031 21.14625 
L 244.697031 21.14625 
z
" style="fill:#ffffff;"/>
   </g>
   <g id="matplotlib.axis_5">
    <g id="xtick_5">
     <g id="line2d_57">
      <path clip-path="url(#pbeb9ce9034)" d="M 258.627031 224.790967 
L 258.627031 21.14625 
" style="fill:none;stroke:#ffffff;stroke-linecap:round;"/>
     </g>
     <g id="line2d_58"/>
     <g id="text_20">
      <!-- 2 sets -->
      <g style="fill:#262626;" transform="translate(254.804865 255.066496)rotate(-60)scale(0.1 -0.1)">
       <use xlink:href="#TimesNewRomanPS-BoldMT-32"/>
       <use x="50" xlink:href="#TimesNewRomanPS-BoldMT-20"/>
       <use x="75" xlink:href="#TimesNewRomanPS-BoldMT-73"/>
       <use x="113.916016" xlink:href="#TimesNewRomanPS-BoldMT-65"/>
       <use x="158.300781" xlink:href="#TimesNewRomanPS-BoldMT-74"/>
       <use x="191.601562" xlink:href="#TimesNewRomanPS-BoldMT-73"/>
      </g>
     </g>
    </g>
    <g id="xtick_6">
     <g id="line2d_59">
      <path clip-path="url(#pbeb9ce9034)" d="M 286.487031 224.790967 
L 286.487031 21.14625 
" style="fill:none;stroke:#ffffff;stroke-linecap:round;"/>
     </g>
     <g id="line2d_60"/>
     <g id="text_21">
      <!-- 1 set -->
      <g style="fill:#262626;" transform="translate(283.637912 251.695763)rotate(-60)scale(0.1 -0.1)">
       <use xlink:href="#TimesNewRomanPS-BoldMT-31"/>
       <use x="50" xlink:href="#TimesNewRomanPS-BoldMT-20"/>
       <use x="75" xlink:href="#TimesNewRomanPS-BoldMT-73"/>
       <use x="113.916016" xlink:href="#TimesNewRomanPS-BoldMT-65"/>
       <use x="158.300781" xlink:href="#TimesNewRomanPS-BoldMT-74"/>
      </g>
     </g>
    </g>
   </g>
   <g id="matplotlib.axis_6">
    <g id="ytick_13">
     <g id="line2d_61">
      <path clip-path="url(#pbeb9ce9034)" d="M 244.697031 195.514502 
L 300.417031 195.514502 
" style="fill:none;stroke:#bfbfbf;stroke-linecap:round;stroke-width:0.5;"/>
     </g>
     <g id="line2d_62"/>
     <g id="text_22">
      <!-- 15 -->
      <g style="fill:#262626;" transform="translate(227.697031 198.825439)scale(0.1 -0.1)">
       <use xlink:href="#TimesNewRomanPS-BoldMT-31"/>
       <use x="50" xlink:href="#TimesNewRomanPS-BoldMT-35"/>
      </g>
     </g>
    </g>
    <g id="ytick_14">
     <g id="line2d_63">
      <path clip-path="url(#pbeb9ce9034)" d="M 244.697031 150.86391 
L 300.417031 150.86391 
" style="fill:none;stroke:#bfbfbf;stroke-linecap:round;stroke-width:0.5;"/>
     </g>
     <g id="line2d_64"/>
     <g id="text_23">
      <!-- 16 -->
      <g style="fill:#262626;" transform="translate(227.697031 154.174848)scale(0.1 -0.1)">
       <use xlink:href="#TimesNewRomanPS-BoldMT-31"/>
       <use x="50" xlink:href="#TimesNewRomanPS-BoldMT-36"/>
      </g>
     </g>
    </g>
    <g id="ytick_15">
     <g id="line2d_65">
      <path clip-path="url(#pbeb9ce9034)" d="M 244.697031 106.213319 
L 300.417031 106.213319 
" style="fill:none;stroke:#bfbfbf;stroke-linecap:round;stroke-width:0.5;"/>
     </g>
     <g id="line2d_66"/>
     <g id="text_24">
      <!-- 17 -->
      <g style="fill:#262626;" transform="translate(227.697031 109.524256)scale(0.1 -0.1)">
       <use xlink:href="#TimesNewRomanPS-BoldMT-31"/>
       <use x="50" xlink:href="#TimesNewRomanPS-BoldMT-37"/>
      </g>
     </g>
    </g>
    <g id="ytick_16">
     <g id="line2d_67">
      <path clip-path="url(#pbeb9ce9034)" d="M 244.697031 61.562727 
L 300.417031 61.562727 
" style="fill:none;stroke:#bfbfbf;stroke-linecap:round;stroke-width:0.5;"/>
     </g>
     <g id="line2d_68"/>
     <g id="text_25">
      <!-- 18 -->
      <g style="fill:#262626;" transform="translate(227.697031 64.873665)scale(0.1 -0.1)">
       <use xlink:href="#TimesNewRomanPS-BoldMT-31"/>
       <use x="50" xlink:href="#TimesNewRomanPS-BoldMT-38"/>
      </g>
     </g>
    </g>
   </g>
   <g id="line2d_69">
    <path clip-path="url(#pbeb9ce9034)" d="M 256.537531 205.939695 
L 260.716531 205.939695 
L 260.716531 190.815462 
L 256.537531 190.815462 
L 256.537531 205.939695 
" style="fill:none;stroke:#000000;stroke-linecap:round;"/>
   </g>
   <g id="line2d_70">
    <path clip-path="url(#pbeb9ce9034)" d="M 258.627031 205.939695 
L 258.627031 215.534389 
" style="fill:none;stroke:#000000;stroke-linecap:round;"/>
   </g>
   <g id="line2d_71">
    <path clip-path="url(#pbeb9ce9034)" d="M 258.627031 190.815462 
L 258.627031 188.702717 
" style="fill:none;stroke:#000000;stroke-linecap:round;"/>
   </g>
   <g id="line2d_72">
    <path clip-path="url(#pbeb9ce9034)" d="M 257.582281 215.534389 
L 259.671781 215.534389 
" style="fill:none;stroke:#000000;stroke-linecap:round;"/>
   </g>
   <g id="line2d_73">
    <path clip-path="url(#pbeb9ce9034)" d="M 257.582281 188.702717 
L 259.671781 188.702717 
" style="fill:none;stroke:#000000;stroke-linecap:round;"/>
   </g>
   <g id="line2d_74">
    <path clip-path="url(#pbeb9ce9034)" d="M 284.397531 69.390656 
L 288.576531 69.390656 
L 288.576531 49.652925 
L 284.397531 49.652925 
L 284.397531 69.390656 
" style="fill:none;stroke:#000000;stroke-linecap:round;"/>
   </g>
   <g id="line2d_75">
    <path clip-path="url(#pbeb9ce9034)" d="M 286.487031 69.390656 
L 286.487031 90.202895 
" style="fill:none;stroke:#000000;stroke-linecap:round;"/>
   </g>
   <g id="line2d_76">
    <path clip-path="url(#pbeb9ce9034)" d="M 286.487031 49.652925 
L 286.487031 30.402828 
" style="fill:none;stroke:#000000;stroke-linecap:round;"/>
   </g>
   <g id="line2d_77">
    <path clip-path="url(#pbeb9ce9034)" d="M 285.442281 90.202895 
L 287.531781 90.202895 
" style="fill:none;stroke:#000000;stroke-linecap:round;"/>
   </g>
   <g id="line2d_78">
    <path clip-path="url(#pbeb9ce9034)" d="M 285.442281 30.402828 
L 287.531781 30.402828 
" style="fill:none;stroke:#000000;stroke-linecap:round;"/>
   </g>
   <g id="line2d_79">
    <path clip-path="url(#pbeb9ce9034)" d="M 256.537531 201.576502 
L 260.716531 201.576502 
" style="fill:none;stroke:#ff0000;stroke-linecap:round;"/>
   </g>
   <g id="line2d_80">
    <path clip-path="url(#pbeb9ce9034)" d="M 284.397531 59.047717 
L 288.576531 59.047717 
" style="fill:none;stroke:#ff0000;stroke-linecap:round;"/>
   </g>
   <g id="patch_13">
    <path d="M 244.697031 224.790967 
L 244.697031 21.14625 
" style="fill:none;"/>
   </g>
   <g id="patch_14">
    <path d="M 300.417031 224.790967 
L 300.417031 21.14625 
" style="fill:none;"/>
   </g>
   <g id="patch_15">
    <path d="M 244.697031 224.790967 
L 300.417031 224.790967 
" style="fill:none;"/>
   </g>
   <g id="patch_16">
    <path d="M 244.697031 21.14625 
L 300.417031 21.14625 
" style="fill:none;"/>
   </g>
   <g id="text_26">
    <!-- FD003 -->
    <g style="fill:#262626;" transform="translate(255.559219 15.14625)scale(0.12 -0.12)">
     <use xlink:href="#TimesNewRomanPS-BoldMT-46"/>
     <use x="61.083984" xlink:href="#TimesNewRomanPS-BoldMT-44"/>
     <use x="133.300781" xlink:href="#TimesNewRomanPS-BoldMT-30"/>
     <use x="183.300781" xlink:href="#TimesNewRomanPS-BoldMT-30"/>
     <use x="233.300781" xlink:href="#TimesNewRomanPS-BoldMT-33"/>
    </g>
   </g>
  </g>
  <g id="axes_4">
   <g id="patch_17">
    <path d="M 344.377031 224.790967 
L 400.097031 224.790967 
L 400.097031 21.14625 
L 344.377031 21.14625 
z
" style="fill:#ffffff;"/>
   </g>
   <g id="matplotlib.axis_7">
    <g id="xtick_7">
     <g id="line2d_81">
      <path clip-path="url(#p76e90b2e57)" d="M 358.307031 224.790967 
L 358.307031 21.14625 
" style="fill:none;stroke:#ffffff;stroke-linecap:round;"/>
     </g>
     <g id="line2d_82"/>
     <g id="text_27">
      <!-- 2 sets -->
      <g style="fill:#262626;" transform="translate(354.484865 255.066496)rotate(-60)scale(0.1 -0.1)">
       <use xlink:href="#TimesNewRomanPS-BoldMT-32"/>
       <use x="50" xlink:href="#TimesNewRomanPS-BoldMT-20"/>
       <use x="75" xlink:href="#TimesNewRomanPS-BoldMT-73"/>
       <use x="113.916016" xlink:href="#TimesNewRomanPS-BoldMT-65"/>
       <use x="158.300781" xlink:href="#TimesNewRomanPS-BoldMT-74"/>
       <use x="191.601562" xlink:href="#TimesNewRomanPS-BoldMT-73"/>
      </g>
     </g>
    </g>
    <g id="xtick_8">
     <g id="line2d_83">
      <path clip-path="url(#p76e90b2e57)" d="M 386.167031 224.790967 
L 386.167031 21.14625 
" style="fill:none;stroke:#ffffff;stroke-linecap:round;"/>
     </g>
     <g id="line2d_84"/>
     <g id="text_28">
      <!-- 1 set -->
      <g style="fill:#262626;" transform="translate(383.317912 251.695763)rotate(-60)scale(0.1 -0.1)">
       <use xlink:href="#TimesNewRomanPS-BoldMT-31"/>
       <use x="50" xlink:href="#TimesNewRomanPS-BoldMT-20"/>
       <use x="75" xlink:href="#TimesNewRomanPS-BoldMT-73"/>
       <use x="113.916016" xlink:href="#TimesNewRomanPS-BoldMT-65"/>
       <use x="158.300781" xlink:href="#TimesNewRomanPS-BoldMT-74"/>
      </g>
     </g>
    </g>
   </g>
   <g id="matplotlib.axis_8">
    <g id="ytick_17">
     <g id="line2d_85">
      <path clip-path="url(#p76e90b2e57)" d="M 344.377031 197.87802 
L 400.097031 197.87802 
" style="fill:none;stroke:#bfbfbf;stroke-linecap:round;stroke-width:0.5;"/>
     </g>
     <g id="line2d_86"/>
     <g id="text_29">
      <!-- 33 -->
      <g style="fill:#262626;" transform="translate(327.377031 201.188958)scale(0.1 -0.1)">
       <use xlink:href="#TimesNewRomanPS-BoldMT-33"/>
       <use x="50" xlink:href="#TimesNewRomanPS-BoldMT-33"/>
      </g>
     </g>
    </g>
    <g id="ytick_18">
     <g id="line2d_87">
      <path clip-path="url(#p76e90b2e57)" d="M 344.377031 158.827733 
L 400.097031 158.827733 
" style="fill:none;stroke:#bfbfbf;stroke-linecap:round;stroke-width:0.5;"/>
     </g>
     <g id="line2d_88"/>
     <g id="text_30">
      <!-- 34 -->
      <defs>
       <path d="M 2.484375 24.953125 
L 33.9375 67.578125 
L 39.890625 67.578125 
L 39.890625 24.953125 
L 45.953125 24.953125 
L 45.953125 14.84375 
L 39.890625 14.84375 
L 39.890625 0 
L 26.46875 0 
L 26.46875 14.84375 
L 2.484375 14.84375 
z
M 7.234375 24.953125 
L 26.46875 24.953125 
L 26.46875 51.078125 
z
" id="TimesNewRomanPS-BoldMT-34"/>
      </defs>
      <g style="fill:#262626;" transform="translate(327.377031 162.138671)scale(0.1 -0.1)">
       <use xlink:href="#TimesNewRomanPS-BoldMT-33"/>
       <use x="50" xlink:href="#TimesNewRomanPS-BoldMT-34"/>
      </g>
     </g>
    </g>
    <g id="ytick_19">
     <g id="line2d_89">
      <path clip-path="url(#p76e90b2e57)" d="M 344.377031 119.777446 
L 400.097031 119.777446 
" style="fill:none;stroke:#bfbfbf;stroke-linecap:round;stroke-width:0.5;"/>
     </g>
     <g id="line2d_90"/>
     <g id="text_31">
      <!-- 35 -->
      <g style="fill:#262626;" transform="translate(327.377031 123.088384)scale(0.1 -0.1)">
       <use xlink:href="#TimesNewRomanPS-BoldMT-33"/>
       <use x="50" xlink:href="#TimesNewRomanPS-BoldMT-35"/>
      </g>
     </g>
    </g>
    <g id="ytick_20">
     <g id="line2d_91">
      <path clip-path="url(#p76e90b2e57)" d="M 344.377031 80.72716 
L 400.097031 80.72716 
" style="fill:none;stroke:#bfbfbf;stroke-linecap:round;stroke-width:0.5;"/>
     </g>
     <g id="line2d_92"/>
     <g id="text_32">
      <!-- 36 -->
      <g style="fill:#262626;" transform="translate(327.377031 84.038097)scale(0.1 -0.1)">
       <use xlink:href="#TimesNewRomanPS-BoldMT-33"/>
       <use x="50" xlink:href="#TimesNewRomanPS-BoldMT-36"/>
      </g>
     </g>
    </g>
    <g id="ytick_21">
     <g id="line2d_93">
      <path clip-path="url(#p76e90b2e57)" d="M 344.377031 41.676873 
L 400.097031 41.676873 
" style="fill:none;stroke:#bfbfbf;stroke-linecap:round;stroke-width:0.5;"/>
     </g>
     <g id="line2d_94"/>
     <g id="text_33">
      <!-- 37 -->
      <g style="fill:#262626;" transform="translate(327.377031 44.98781)scale(0.1 -0.1)">
       <use xlink:href="#TimesNewRomanPS-BoldMT-33"/>
       <use x="50" xlink:href="#TimesNewRomanPS-BoldMT-37"/>
      </g>
     </g>
    </g>
   </g>
   <g id="line2d_95">
    <path clip-path="url(#p76e90b2e57)" d="M 356.217531 194.832702 
L 360.396531 194.832702 
L 360.396531 134.754171 
L 356.217531 134.754171 
L 356.217531 194.832702 
" style="fill:none;stroke:#000000;stroke-linecap:round;"/>
   </g>
   <g id="line2d_96">
    <path clip-path="url(#p76e90b2e57)" d="M 358.307031 194.832702 
L 358.307031 215.534389 
" style="fill:none;stroke:#000000;stroke-linecap:round;"/>
   </g>
   <g id="line2d_97">
    <path clip-path="url(#p76e90b2e57)" d="M 358.307031 134.754171 
L 358.307031 88.505813 
" style="fill:none;stroke:#000000;stroke-linecap:round;"/>
   </g>
   <g id="line2d_98">
    <path clip-path="url(#p76e90b2e57)" d="M 357.262281 215.534389 
L 359.351781 215.534389 
" style="fill:none;stroke:#000000;stroke-linecap:round;"/>
   </g>
   <g id="line2d_99">
    <path clip-path="url(#p76e90b2e57)" d="M 357.262281 88.505813 
L 359.351781 88.505813 
" style="fill:none;stroke:#000000;stroke-linecap:round;"/>
   </g>
   <g id="line2d_100">
    <path clip-path="url(#p76e90b2e57)" d="M 384.077531 179.307657 
L 388.256531 179.307657 
L 388.256531 118.564366 
L 384.077531 118.564366 
L 384.077531 179.307657 
" style="fill:none;stroke:#000000;stroke-linecap:round;"/>
   </g>
   <g id="line2d_101">
    <path clip-path="url(#p76e90b2e57)" d="M 386.167031 179.307657 
L 386.167031 201.011961 
" style="fill:none;stroke:#000000;stroke-linecap:round;"/>
   </g>
   <g id="line2d_102">
    <path clip-path="url(#p76e90b2e57)" d="M 386.167031 118.564366 
L 386.167031 30.402828 
" style="fill:none;stroke:#000000;stroke-linecap:round;"/>
   </g>
   <g id="line2d_103">
    <path clip-path="url(#p76e90b2e57)" d="M 385.122281 201.011961 
L 387.211781 201.011961 
" style="fill:none;stroke:#000000;stroke-linecap:round;"/>
   </g>
   <g id="line2d_104">
    <path clip-path="url(#p76e90b2e57)" d="M 385.122281 30.402828 
L 387.211781 30.402828 
" style="fill:none;stroke:#000000;stroke-linecap:round;"/>
   </g>
   <g id="line2d_105">
    <path clip-path="url(#p76e90b2e57)" d="M 356.217531 168.079099 
L 360.396531 168.079099 
" style="fill:none;stroke:#ff0000;stroke-linecap:round;"/>
   </g>
   <g id="line2d_106">
    <path clip-path="url(#p76e90b2e57)" d="M 384.077531 158.040527 
L 388.256531 158.040527 
" style="fill:none;stroke:#ff0000;stroke-linecap:round;"/>
   </g>
   <g id="patch_18">
    <path d="M 344.377031 224.790967 
L 344.377031 21.14625 
" style="fill:none;"/>
   </g>
   <g id="patch_19">
    <path d="M 400.097031 224.790967 
L 400.097031 21.14625 
" style="fill:none;"/>
   </g>
   <g id="patch_20">
    <path d="M 344.377031 224.790967 
L 400.097031 224.790967 
" style="fill:none;"/>
   </g>
   <g id="patch_21">
    <path d="M 344.377031 21.14625 
L 400.097031 21.14625 
" style="fill:none;"/>
   </g>
   <g id="text_34">
    <!-- FD004 -->
    <g style="fill:#262626;" transform="translate(355.239219 15.14625)scale(0.12 -0.12)">
     <use xlink:href="#TimesNewRomanPS-BoldMT-46"/>
     <use x="61.083984" xlink:href="#TimesNewRomanPS-BoldMT-44"/>
     <use x="133.300781" xlink:href="#TimesNewRomanPS-BoldMT-30"/>
     <use x="183.300781" xlink:href="#TimesNewRomanPS-BoldMT-30"/>
     <use x="233.300781" xlink:href="#TimesNewRomanPS-BoldMT-34"/>
    </g>
   </g>
  </g>
 </g>
 <defs>
  <clipPath id="pc155335ca0">
   <rect height="203.644717" width="55.72" x="45.337031" y="21.14625"/>
  </clipPath>
  <clipPath id="pa29a8a0e5f">
   <rect height="203.644717" width="55.72" x="145.017031" y="21.14625"/>
  </clipPath>
  <clipPath id="pbeb9ce9034">
   <rect height="203.644717" width="55.72" x="244.697031" y="21.14625"/>
  </clipPath>
  <clipPath id="p76e90b2e57">
   <rect height="203.644717" width="55.72" x="344.377031" y="21.14625"/>
  </clipPath>
 </defs>
</svg>
