<?xml version="1.0" encoding="utf-8" standalone="no"?>
<!DOCTYPE svg PUBLIC "-//W3C//DTD SVG 1.1//EN"
  "http://www.w3.org/Graphics/SVG/1.1/DTD/svg11.dtd">
<!-- Created with matplotlib (http://matplotlib.org/) -->
<svg height="263pt" version="1.1" viewBox="0 0 414 263" width="414pt" xmlns="http://www.w3.org/2000/svg" xmlns:xlink="http://www.w3.org/1999/xlink">
 <defs>
  <style type="text/css">
*{stroke-linecap:butt;stroke-linejoin:round;}
  </style>
 </defs>
 <g id="figure_1">
  <g id="patch_1">
   <path d="M 0 263.780821 
L 414.906531 263.780821 
L 414.906531 0 
L 0 0 
z
" style="fill:#ffffff;"/>
  </g>
  <g id="axes_1">
   <g id="patch_2">
    <path d="M 42.969687 205.759712 
L 88.055625 205.759712 
L 88.055625 27.50325 
L 42.969687 27.50325 
z
" style="fill:#ffffff;"/>
   </g>
   <g id="matplotlib.axis_1">
    <g id="xtick_1">
     <g id="line2d_1">
      <defs>
       <path d="M 0 0 
L 0 3.5 
" id="mc2c2a29251" style="stroke:#000000;stroke-width:0.8;"/>
      </defs>
      <g>
       <use style="stroke:#000000;stroke-width:0.8;" x="54.241172" xlink:href="#mc2c2a29251" y="205.759712"/>
      </g>
     </g>
     <g id="text_1">
      <!-- 2 sets -->
      <defs>
       <path d="M 41.40625 0 
L 2.4375 0 
L 2.4375 1.078125 
Q 20.359375 22.40625 24.1875 29.78125 
Q 28.03125 37.15625 28.03125 44.1875 
Q 28.03125 49.3125 24.859375 52.703125 
Q 21.6875 56.109375 17.09375 56.109375 
Q 9.578125 56.109375 5.421875 48.578125 
L 3.609375 49.21875 
Q 6.25 58.59375 11.625 63.078125 
Q 17 67.578125 24.03125 67.578125 
Q 29.046875 67.578125 33.203125 65.234375 
Q 37.359375 62.890625 39.703125 58.8125 
Q 42.046875 54.734375 42.046875 51.171875 
Q 42.046875 44.671875 38.421875 37.984375 
Q 33.5 28.953125 16.890625 12.796875 
L 31.203125 12.796875 
Q 36.46875 12.796875 38.0625 13.234375 
Q 39.65625 13.671875 40.671875 14.71875 
Q 41.703125 15.765625 43.359375 19.140625 
L 45.125 19.140625 
z
" id="TimesNewRomanPS-BoldMT-32"/>
       <path id="TimesNewRomanPS-BoldMT-20"/>
       <path d="M 32.234375 46.921875 
L 32.953125 31.34375 
L 31.296875 31.34375 
Q 28.328125 38.28125 25.125 40.8125 
Q 21.921875 43.359375 18.75 43.359375 
Q 16.75 43.359375 15.328125 42.015625 
Q 13.921875 40.671875 13.921875 38.921875 
Q 13.921875 37.59375 14.890625 36.375 
Q 16.453125 34.375 23.625 29.515625 
Q 30.8125 24.65625 33.078125 21.265625 
Q 35.359375 17.875 35.359375 13.671875 
Q 35.359375 9.859375 33.453125 6.203125 
Q 31.546875 2.546875 28.078125 0.578125 
Q 24.609375 -1.375 20.40625 -1.375 
Q 17.140625 -1.375 11.671875 0.6875 
Q 10.203125 1.21875 9.671875 1.21875 
Q 8.0625 1.21875 6.984375 -1.21875 
L 5.375 -1.21875 
L 4.59375 15.1875 
L 6.25 15.1875 
Q 8.453125 8.734375 12.28125 5.515625 
Q 16.109375 2.296875 19.53125 2.296875 
Q 21.875 2.296875 23.359375 3.734375 
Q 24.859375 5.171875 24.859375 7.234375 
Q 24.859375 9.578125 23.390625 11.28125 
Q 21.921875 12.984375 16.84375 16.453125 
Q 9.375 21.625 7.171875 24.359375 
Q 3.953125 28.375 3.953125 33.203125 
Q 3.953125 38.484375 7.59375 42.75 
Q 11.234375 47.015625 18.109375 47.015625 
Q 21.828125 47.015625 25.296875 45.21875 
Q 26.609375 44.484375 27.4375 44.484375 
Q 28.328125 44.484375 28.859375 44.84375 
Q 29.390625 45.21875 30.5625 46.921875 
z
" id="TimesNewRomanPS-BoldMT-73"/>
       <path d="M 42.046875 24.46875 
L 17 24.46875 
Q 17.4375 15.375 21.828125 10.109375 
Q 25.203125 6.0625 29.9375 6.0625 
Q 32.859375 6.0625 35.25 7.6875 
Q 37.640625 9.328125 40.375 13.578125 
L 42.046875 12.5 
Q 38.328125 4.9375 33.828125 1.78125 
Q 29.34375 -1.375 23.4375 -1.375 
Q 13.28125 -1.375 8.0625 6.453125 
Q 3.859375 12.75 3.859375 22.078125 
Q 3.859375 33.5 10.03125 40.25 
Q 16.21875 47.015625 24.515625 47.015625 
Q 31.453125 47.015625 36.546875 41.328125 
Q 41.65625 35.640625 42.046875 24.46875 
z
M 30.03125 27.734375 
Q 30.03125 35.59375 29.171875 38.515625 
Q 28.328125 41.453125 26.515625 42.96875 
Q 25.484375 43.84375 23.78125 43.84375 
Q 21.234375 43.84375 19.625 41.359375 
Q 16.75 37.015625 16.75 29.4375 
L 16.75 27.734375 
z
" id="TimesNewRomanPS-BoldMT-65"/>
       <path d="M 21.484375 62.359375 
L 21.484375 45.65625 
L 32.328125 45.65625 
L 32.328125 40.828125 
L 21.484375 40.828125 
L 21.484375 12.640625 
Q 21.484375 8.6875 21.84375 7.53125 
Q 22.21875 6.390625 23.140625 5.6875 
Q 24.078125 4.984375 24.859375 4.984375 
Q 28.03125 4.984375 30.859375 9.8125 
L 32.328125 8.734375 
Q 28.375 -0.640625 19.484375 -0.640625 
Q 15.140625 -0.640625 12.125 1.78125 
Q 9.125 4.203125 8.296875 7.171875 
Q 7.8125 8.84375 7.8125 16.15625 
L 7.8125 40.828125 
L 1.859375 40.828125 
L 1.859375 42.53125 
Q 8.015625 46.875 12.328125 51.65625 
Q 16.65625 56.453125 19.875 62.359375 
z
" id="TimesNewRomanPS-BoldMT-74"/>
      </defs>
      <g transform="translate(47.361272 254.655665)rotate(-60)scale(0.18 -0.18)">
       <use xlink:href="#TimesNewRomanPS-BoldMT-32"/>
       <use x="50" xlink:href="#TimesNewRomanPS-BoldMT-20"/>
       <use x="75" xlink:href="#TimesNewRomanPS-BoldMT-73"/>
       <use x="113.916016" xlink:href="#TimesNewRomanPS-BoldMT-65"/>
       <use x="158.300781" xlink:href="#TimesNewRomanPS-BoldMT-74"/>
       <use x="191.601562" xlink:href="#TimesNewRomanPS-BoldMT-73"/>
      </g>
     </g>
    </g>
    <g id="xtick_2">
     <g id="line2d_2">
      <g>
       <use style="stroke:#000000;stroke-width:0.8;" x="76.784141" xlink:href="#mc2c2a29251" y="205.759712"/>
      </g>
     </g>
     <g id="text_2">
      <!-- 1 set -->
      <defs>
       <path d="M 32.5625 67.578125 
L 32.5625 13.421875 
Q 32.5625 7.328125 33.09375 5.640625 
Q 33.640625 3.953125 35.34375 2.875 
Q 37.0625 1.8125 40.828125 1.8125 
L 42.328125 1.8125 
L 42.328125 0 
L 7.46875 0 
L 7.46875 1.8125 
L 9.234375 1.8125 
Q 13.484375 1.8125 15.28125 2.78125 
Q 17.09375 3.765625 17.71875 5.46875 
Q 18.359375 7.171875 18.359375 13.421875 
L 18.359375 47.75 
Q 18.359375 52.34375 17.921875 53.484375 
Q 17.484375 54.640625 16.28125 55.4375 
Q 15.09375 56.25 13.53125 56.25 
Q 11.03125 56.25 7.46875 54.6875 
L 6.59375 56.453125 
L 30.953125 67.578125 
z
" id="TimesNewRomanPS-BoldMT-31"/>
      </defs>
      <g transform="translate(71.655725 248.588345)rotate(-60)scale(0.18 -0.18)">
       <use xlink:href="#TimesNewRomanPS-BoldMT-31"/>
       <use x="50" xlink:href="#TimesNewRomanPS-BoldMT-20"/>
       <use x="75" xlink:href="#TimesNewRomanPS-BoldMT-73"/>
       <use x="113.916016" xlink:href="#TimesNewRomanPS-BoldMT-65"/>
       <use x="158.300781" xlink:href="#TimesNewRomanPS-BoldMT-74"/>
      </g>
     </g>
    </g>
   </g>
   <g id="matplotlib.axis_2">
    <g id="ytick_1">
     <g id="line2d_3">
      <path clip-path="url(#pea8131b547)" d="M 42.969687 177.46088 
L 88.055625 177.46088 
" style="fill:none;stroke:#bfbfbf;stroke-linecap:square;stroke-width:0.5;"/>
     </g>
     <g id="line2d_4">
      <defs>
       <path d="M 0 0 
L -3.5 0 
" id="m88d3055246" style="stroke:#000000;stroke-width:0.8;"/>
      </defs>
      <g>
       <use style="stroke:#000000;stroke-width:0.8;" x="42.969687" xlink:href="#m88d3055246" y="177.46088"/>
      </g>
     </g>
     <g id="text_3">
      <!-- 4 -->
      <defs>
       <path d="M 2.484375 24.953125 
L 33.9375 67.578125 
L 39.890625 67.578125 
L 39.890625 24.953125 
L 45.953125 24.953125 
L 45.953125 14.84375 
L 39.890625 14.84375 
L 39.890625 0 
L 26.46875 0 
L 26.46875 14.84375 
L 2.484375 14.84375 
z
M 7.234375 24.953125 
L 26.46875 24.953125 
L 26.46875 51.078125 
z
" id="TimesNewRomanPS-BoldMT-34"/>
      </defs>
      <g transform="translate(26.969687 183.420568)scale(0.18 -0.18)">
       <use xlink:href="#TimesNewRomanPS-BoldMT-34"/>
      </g>
     </g>
    </g>
    <g id="ytick_2">
     <g id="line2d_5">
      <path clip-path="url(#pea8131b547)" d="M 42.969687 123.579447 
L 88.055625 123.579447 
" style="fill:none;stroke:#bfbfbf;stroke-linecap:square;stroke-width:0.5;"/>
     </g>
     <g id="line2d_6">
      <g>
       <use style="stroke:#000000;stroke-width:0.8;" x="42.969687" xlink:href="#m88d3055246" y="123.579447"/>
      </g>
     </g>
     <g id="text_4">
      <!-- 6 -->
      <defs>
       <path d="M 46.96875 67.578125 
L 46.96875 66.21875 
Q 38.140625 63.96875 32.78125 60.421875 
Q 27.4375 56.890625 24.328125 51.828125 
Q 21.234375 46.78125 19.53125 39.3125 
Q 21.6875 40.765625 23.09375 41.21875 
Q 26.265625 42.1875 29.5 42.1875 
Q 36.921875 42.1875 41.875 36.78125 
Q 46.828125 31.390625 46.828125 22.078125 
Q 46.828125 15.53125 44.140625 10.0625 
Q 41.453125 4.59375 36.515625 1.609375 
Q 31.59375 -1.375 25.984375 -1.375 
Q 19.875 -1.375 14.6875 1.96875 
Q 9.515625 5.328125 6.609375 11.765625 
Q 3.71875 18.21875 3.71875 25.78125 
Q 3.71875 36.921875 9.0625 46.515625 
Q 14.40625 56.109375 24.234375 61.796875 
Q 34.078125 67.484375 46.96875 67.578125 
z
M 18.890625 35.359375 
Q 18.5 28.609375 18.5 25.484375 
Q 18.5 18.75 19.796875 12.453125 
Q 21.09375 6.15625 23.34375 3.609375 
Q 24.953125 1.8125 27.15625 1.8125 
Q 29.390625 1.8125 31.140625 4.421875 
Q 32.90625 7.03125 32.90625 15.046875 
Q 32.90625 28.515625 29.640625 33.640625 
Q 27.546875 36.96875 23.96875 36.96875 
Q 22.015625 36.96875 18.890625 35.359375 
z
" id="TimesNewRomanPS-BoldMT-36"/>
      </defs>
      <g transform="translate(26.969687 129.539134)scale(0.18 -0.18)">
       <use xlink:href="#TimesNewRomanPS-BoldMT-36"/>
      </g>
     </g>
    </g>
    <g id="ytick_3">
     <g id="line2d_7">
      <path clip-path="url(#pea8131b547)" d="M 42.969687 69.698013 
L 88.055625 69.698013 
" style="fill:none;stroke:#bfbfbf;stroke-linecap:square;stroke-width:0.5;"/>
     </g>
     <g id="line2d_8">
      <g>
       <use style="stroke:#000000;stroke-width:0.8;" x="42.969687" xlink:href="#m88d3055246" y="69.698013"/>
      </g>
     </g>
     <g id="text_5">
      <!-- 8 -->
      <defs>
       <path d="M 34.078125 37.40625 
Q 41.0625 32.28125 43.765625 27.859375 
Q 46.484375 23.4375 46.484375 17.71875 
Q 46.484375 9.71875 40.453125 4.171875 
Q 34.421875 -1.375 24.078125 -1.375 
Q 14.265625 -1.375 8.890625 3.453125 
Q 3.515625 8.296875 3.515625 15.28125 
Q 3.515625 20.609375 6.609375 24.609375 
Q 9.71875 28.609375 16.9375 31.9375 
Q 9.078125 37.9375 6.859375 41.75 
Q 4.640625 45.5625 4.640625 50.59375 
Q 4.640625 57.234375 10.28125 62.28125 
Q 15.921875 67.328125 25.734375 67.328125 
Q 35.203125 67.328125 40.296875 62.859375 
Q 45.40625 58.40625 45.40625 52.15625 
Q 45.40625 47.46875 42.640625 43.875 
Q 39.890625 40.28125 34.078125 37.40625 
z
M 30.375 39.890625 
Q 32.171875 42.328125 33.046875 45.359375 
Q 33.9375 48.390625 33.9375 52 
Q 33.9375 58.34375 31.203125 61.71875 
Q 29.15625 64.3125 25.53125 64.3125 
Q 22.265625 64.3125 19.96875 61.9375 
Q 17.671875 59.578125 17.671875 56.0625 
Q 17.671875 52.484375 20.234375 48.65625 
Q 22.796875 44.828125 30.375 39.890625 
z
M 20.609375 29.59375 
Q 19.09375 28.21875 18.453125 27.09375 
Q 17.484375 25.390625 16.703125 22.109375 
Q 15.921875 18.84375 15.921875 15.28125 
Q 15.921875 10.6875 17.09375 7.59375 
Q 18.265625 4.5 20.4375 3.125 
Q 22.609375 1.765625 24.90625 1.765625 
Q 28.46875 1.765625 30.90625 4.375 
Q 33.34375 6.984375 33.34375 11.53125 
Q 33.34375 21 20.609375 29.59375 
z
" id="TimesNewRomanPS-BoldMT-38"/>
      </defs>
      <g transform="translate(26.969687 75.6577)scale(0.18 -0.18)">
       <use xlink:href="#TimesNewRomanPS-BoldMT-38"/>
      </g>
     </g>
    </g>
    <g id="text_6">
     <!-- RHS -->
     <defs>
      <path d="M 26.5625 30.171875 
L 26.5625 11.625 
Q 26.5625 6.25 27.21875 4.859375 
Q 27.875 3.46875 29.53125 2.640625 
Q 31.203125 1.8125 35.75 1.8125 
L 35.75 0 
L 1.859375 0 
L 1.859375 1.8125 
Q 6.453125 1.8125 8.078125 2.65625 
Q 9.71875 3.515625 10.375 4.875 
Q 11.03125 6.25 11.03125 11.625 
L 11.03125 54.59375 
Q 11.03125 59.96875 10.375 61.359375 
Q 9.71875 62.75 8.046875 63.578125 
Q 6.390625 64.40625 1.859375 64.40625 
L 1.859375 66.21875 
L 32.625 66.21875 
Q 44.625 66.21875 50.1875 64.546875 
Q 55.765625 62.890625 59.28125 58.421875 
Q 62.796875 53.953125 62.796875 47.953125 
Q 62.796875 40.625 57.515625 35.84375 
Q 54.15625 32.8125 48.09375 31.296875 
L 64.015625 8.890625 
Q 67.140625 4.546875 68.453125 3.46875 
Q 70.453125 1.953125 73.09375 1.8125 
L 73.09375 0 
L 52.25 0 
L 30.90625 30.171875 
z
M 26.5625 62.640625 
L 26.5625 33.640625 
L 29.34375 33.640625 
Q 36.140625 33.640625 39.5 34.890625 
Q 42.875 36.140625 44.796875 39.375 
Q 46.734375 42.625 46.734375 47.859375 
Q 46.734375 55.421875 43.1875 59.03125 
Q 39.65625 62.640625 31.78125 62.640625 
z
" id="TimesNewRomanPS-BoldMT-52"/>
      <path d="M 27.34375 31.84375 
L 27.34375 11.328125 
Q 27.34375 6.25 27.90625 4.984375 
Q 28.46875 3.71875 30.09375 2.765625 
Q 31.734375 1.8125 34.515625 1.8125 
L 36.71875 1.8125 
L 36.71875 0 
L 2.09375 0 
L 2.09375 1.8125 
L 4.296875 1.8125 
Q 7.171875 1.8125 8.9375 2.828125 
Q 10.203125 3.515625 10.890625 5.171875 
Q 11.421875 6.34375 11.421875 11.328125 
L 11.421875 54.890625 
Q 11.421875 59.96875 10.890625 61.234375 
Q 10.359375 62.5 8.71875 63.453125 
Q 7.078125 64.40625 4.296875 64.40625 
L 2.09375 64.40625 
L 2.09375 66.21875 
L 36.71875 66.21875 
L 36.71875 64.40625 
L 34.515625 64.40625 
Q 31.640625 64.40625 29.890625 63.375 
Q 28.609375 62.703125 27.875 61.03125 
Q 27.34375 59.859375 27.34375 54.890625 
L 27.34375 36.140625 
L 50.734375 36.140625 
L 50.734375 54.890625 
Q 50.734375 59.96875 50.1875 61.234375 
Q 49.65625 62.5 48 63.453125 
Q 46.34375 64.40625 43.5625 64.40625 
L 41.40625 64.40625 
L 41.40625 66.21875 
L 75.984375 66.21875 
L 75.984375 64.40625 
L 73.828125 64.40625 
Q 70.90625 64.40625 69.1875 63.375 
Q 67.921875 62.703125 67.1875 61.03125 
Q 66.65625 59.859375 66.65625 54.890625 
L 66.65625 11.328125 
Q 66.65625 6.25 67.1875 4.984375 
Q 67.71875 3.71875 69.375 2.765625 
Q 71.046875 1.8125 73.828125 1.8125 
L 75.984375 1.8125 
L 75.984375 0 
L 41.40625 0 
L 41.40625 1.8125 
L 43.5625 1.8125 
Q 46.484375 1.8125 48.1875 2.828125 
Q 49.46875 3.515625 50.203125 5.171875 
Q 50.734375 6.34375 50.734375 11.328125 
L 50.734375 31.84375 
z
" id="TimesNewRomanPS-BoldMT-48"/>
      <path d="M 46.96875 67.71875 
L 47.515625 45.65625 
L 45.515625 45.65625 
Q 44.09375 53.953125 38.546875 59 
Q 33.015625 64.0625 26.5625 64.0625 
Q 21.578125 64.0625 18.671875 61.390625 
Q 15.765625 58.734375 15.765625 55.28125 
Q 15.765625 53.078125 16.796875 51.375 
Q 18.21875 49.078125 21.34375 46.828125 
Q 23.640625 45.21875 31.9375 41.109375 
Q 43.5625 35.40625 47.609375 30.328125 
Q 51.609375 25.25 51.609375 18.703125 
Q 51.609375 10.40625 45.140625 4.421875 
Q 38.671875 -1.5625 28.71875 -1.5625 
Q 25.59375 -1.5625 22.796875 -0.921875 
Q 20.015625 -0.296875 15.828125 1.46875 
Q 13.484375 2.4375 11.96875 2.4375 
Q 10.6875 2.4375 9.265625 1.453125 
Q 7.859375 0.484375 6.984375 -1.515625 
L 5.171875 -1.515625 
L 5.171875 23.484375 
L 6.984375 23.484375 
Q 9.125 12.9375 15.25 7.390625 
Q 21.390625 1.859375 28.46875 1.859375 
Q 33.9375 1.859375 37.1875 4.828125 
Q 40.4375 7.8125 40.4375 11.765625 
Q 40.4375 14.109375 39.1875 16.296875 
Q 37.9375 18.5 35.390625 20.484375 
Q 32.859375 22.46875 26.421875 25.640625 
Q 17.390625 30.078125 13.421875 33.203125 
Q 9.46875 36.328125 7.34375 40.1875 
Q 5.21875 44.046875 5.21875 48.6875 
Q 5.21875 56.59375 11.03125 62.15625 
Q 16.84375 67.71875 25.6875 67.71875 
Q 28.90625 67.71875 31.9375 66.9375 
Q 34.234375 66.359375 37.53125 64.765625 
Q 40.828125 63.1875 42.140625 63.1875 
Q 43.40625 63.1875 44.140625 63.96875 
Q 44.875 64.75 45.515625 67.71875 
z
" id="TimesNewRomanPS-BoldMT-53"/>
     </defs>
     <g transform="translate(19.119375 135.136325)rotate(-90)scale(0.18 -0.18)">
      <use xlink:href="#TimesNewRomanPS-BoldMT-52"/>
      <use x="72.216797" xlink:href="#TimesNewRomanPS-BoldMT-48"/>
      <use x="150" xlink:href="#TimesNewRomanPS-BoldMT-53"/>
     </g>
    </g>
   </g>
   <g id="line2d_9">
    <path clip-path="url(#pea8131b547)" d="M 52.550449 196.518305 
L 55.931895 196.518305 
L 55.931895 191.908477 
L 52.550449 191.908477 
L 52.550449 196.518305 
" style="fill:none;stroke:#000000;stroke-linecap:square;"/>
   </g>
   <g id="line2d_10">
    <path clip-path="url(#pea8131b547)" d="M 54.241172 196.518305 
L 54.241172 197.657145 
" style="fill:none;stroke:#000000;stroke-linecap:square;"/>
   </g>
   <g id="line2d_11">
    <path clip-path="url(#pea8131b547)" d="M 54.241172 191.908477 
L 54.241172 188.577784 
" style="fill:none;stroke:#000000;stroke-linecap:square;"/>
   </g>
   <g id="line2d_12">
    <path clip-path="url(#pea8131b547)" d="M 53.395811 197.657145 
L 55.086533 197.657145 
" style="fill:none;stroke:#000000;stroke-linecap:square;"/>
   </g>
   <g id="line2d_13">
    <path clip-path="url(#pea8131b547)" d="M 53.395811 188.577784 
L 55.086533 188.577784 
" style="fill:none;stroke:#000000;stroke-linecap:square;"/>
   </g>
   <g id="line2d_14">
    <path clip-path="url(#pea8131b547)" d="M 75.093418 64.529602 
L 78.474863 64.529602 
L 78.474863 43.401714 
L 75.093418 43.401714 
L 75.093418 64.529602 
" style="fill:none;stroke:#000000;stroke-linecap:square;"/>
   </g>
   <g id="line2d_15">
    <path clip-path="url(#pea8131b547)" d="M 76.784141 64.529602 
L 76.784141 67.469732 
" style="fill:none;stroke:#000000;stroke-linecap:square;"/>
   </g>
   <g id="line2d_16">
    <path clip-path="url(#pea8131b547)" d="M 76.784141 43.401714 
L 76.784141 35.605816 
" style="fill:none;stroke:#000000;stroke-linecap:square;"/>
   </g>
   <g id="line2d_17">
    <path clip-path="url(#pea8131b547)" d="M 75.938779 67.469732 
L 77.629502 67.469732 
" style="fill:none;stroke:#000000;stroke-linecap:square;"/>
   </g>
   <g id="line2d_18">
    <path clip-path="url(#pea8131b547)" d="M 75.938779 35.605816 
L 77.629502 35.605816 
" style="fill:none;stroke:#000000;stroke-linecap:square;"/>
   </g>
   <g id="line2d_19">
    <path clip-path="url(#pea8131b547)" d="M 52.550449 195.396014 
L 55.931895 195.396014 
" style="fill:none;stroke:#ff0000;stroke-linecap:square;"/>
   </g>
   <g id="line2d_20">
    <path clip-path="url(#pea8131b547)" d="M 75.093418 50.039087 
L 78.474863 50.039087 
" style="fill:none;stroke:#ff0000;stroke-linecap:square;"/>
   </g>
   <g id="patch_3">
    <path d="M 42.969687 205.759712 
L 42.969687 27.50325 
" style="fill:none;stroke:#000000;stroke-linecap:square;stroke-linejoin:miter;stroke-width:0.8;"/>
   </g>
   <g id="patch_4">
    <path d="M 88.055625 205.759712 
L 88.055625 27.50325 
" style="fill:none;stroke:#000000;stroke-linecap:square;stroke-linejoin:miter;stroke-width:0.8;"/>
   </g>
   <g id="patch_5">
    <path d="M 42.969687 205.759712 
L 88.055625 205.759712 
" style="fill:none;stroke:#000000;stroke-linecap:square;stroke-linejoin:miter;stroke-width:0.8;"/>
   </g>
   <g id="patch_6">
    <path d="M 42.969687 27.50325 
L 88.055625 27.50325 
" style="fill:none;stroke:#000000;stroke-linecap:square;stroke-linejoin:miter;stroke-width:0.8;"/>
   </g>
   <g id="text_7">
    <!-- FD001 -->
    <defs>
     <path d="M 27.484375 62.40625 
L 27.484375 35.203125 
L 29.390625 35.203125 
Q 33.796875 35.203125 36.578125 36.515625 
Q 39.359375 37.84375 41.28125 40.96875 
Q 43.21875 44.09375 43.796875 49.421875 
L 45.515625 49.421875 
L 45.515625 16.15625 
L 43.796875 16.15625 
Q 42.875 25.59375 38.75 28.59375 
Q 34.625 31.59375 29.390625 31.59375 
L 27.484375 31.59375 
L 27.484375 11.328125 
Q 27.484375 6.25 28.046875 4.984375 
Q 28.609375 3.71875 30.25 2.765625 
Q 31.890625 1.8125 34.671875 1.8125 
L 36.859375 1.8125 
L 36.859375 0 
L 2.25 0 
L 2.25 1.8125 
L 4.4375 1.8125 
Q 7.328125 1.8125 9.078125 2.828125 
Q 10.359375 3.515625 11.03125 5.171875 
Q 11.578125 6.34375 11.578125 11.328125 
L 11.578125 54.890625 
Q 11.578125 59.96875 11.03125 61.234375 
Q 10.5 62.5 8.859375 63.453125 
Q 7.234375 64.40625 4.4375 64.40625 
L 2.25 64.40625 
L 2.25 66.21875 
L 58.109375 66.21875 
L 58.109375 47.21875 
L 56.109375 47.21875 
Q 55.421875 53.90625 52.609375 57.125 
Q 49.8125 60.359375 44.484375 61.671875 
Q 41.546875 62.40625 33.640625 62.40625 
z
" id="TimesNewRomanPS-BoldMT-46"/>
     <path d="M 1.3125 0 
L 1.3125 1.8125 
L 3.515625 1.8125 
Q 6.390625 1.8125 7.921875 2.703125 
Q 9.46875 3.609375 10.203125 5.171875 
Q 10.640625 6.203125 10.640625 11.328125 
L 10.640625 54.890625 
Q 10.640625 59.96875 10.109375 61.234375 
Q 9.578125 62.5 7.9375 63.453125 
Q 6.296875 64.40625 3.515625 64.40625 
L 1.3125 64.40625 
L 1.3125 66.21875 
L 30.953125 66.21875 
Q 42.828125 66.21875 50.046875 62.984375 
Q 58.890625 59.03125 63.453125 51.015625 
Q 68.015625 43.015625 68.015625 32.90625 
Q 68.015625 25.921875 65.765625 20.03125 
Q 63.53125 14.15625 59.953125 10.328125 
Q 56.390625 6.5 51.734375 4.171875 
Q 47.078125 1.859375 40.328125 0.59375 
Q 37.359375 0 30.953125 0 
z
M 26.5625 62.453125 
L 26.5625 10.796875 
Q 26.5625 6.6875 26.953125 5.75 
Q 27.34375 4.828125 28.265625 4.34375 
Q 29.59375 3.609375 32.078125 3.609375 
Q 40.234375 3.609375 44.53125 9.1875 
Q 50.390625 16.703125 50.390625 32.515625 
Q 50.390625 45.265625 46.390625 52.875 
Q 43.21875 58.84375 38.234375 60.984375 
Q 34.71875 62.5 26.5625 62.453125 
z
" id="TimesNewRomanPS-BoldMT-44"/>
     <path d="M 46.34375 33.109375 
Q 46.34375 23.1875 43.5625 14.59375 
Q 41.890625 9.328125 39.078125 5.953125 
Q 36.28125 2.59375 32.71875 0.609375 
Q 29.15625 -1.375 24.953125 -1.375 
Q 20.171875 -1.375 16.3125 1.0625 
Q 12.453125 3.515625 9.46875 8.0625 
Q 7.328125 11.375 5.71875 16.890625 
Q 3.609375 24.359375 3.609375 32.328125 
Q 3.609375 43.109375 6.640625 52.15625 
Q 9.125 59.625 14.203125 63.59375 
Q 19.28125 67.578125 24.953125 67.578125 
Q 30.71875 67.578125 35.71875 63.640625 
Q 40.71875 59.71875 43.0625 53.078125 
Q 46.34375 43.953125 46.34375 33.109375 
z
M 31.296875 33.203125 
Q 31.296875 50.59375 31.109375 53.46875 
Q 30.609375 60.25 28.765625 62.640625 
Q 27.546875 64.203125 24.8125 64.203125 
Q 22.703125 64.203125 21.484375 63.03125 
Q 19.671875 61.328125 19.03125 57 
Q 18.40625 52.6875 18.40625 26.859375 
Q 18.40625 12.796875 19.390625 8.015625 
Q 20.125 4.546875 21.484375 3.375 
Q 22.859375 2.203125 25.09375 2.203125 
Q 27.546875 2.203125 28.765625 3.765625 
Q 30.8125 6.5 31.109375 12.203125 
z
" id="TimesNewRomanPS-BoldMT-30"/>
    </defs>
    <g transform="translate(34.916594 21.50325)scale(0.216 -0.216)">
     <use xlink:href="#TimesNewRomanPS-BoldMT-46"/>
     <use x="61.083984" xlink:href="#TimesNewRomanPS-BoldMT-44"/>
     <use x="133.300781" xlink:href="#TimesNewRomanPS-BoldMT-30"/>
     <use x="183.300781" xlink:href="#TimesNewRomanPS-BoldMT-30"/>
     <use x="233.300781" xlink:href="#TimesNewRomanPS-BoldMT-31"/>
    </g>
   </g>
  </g>
  <g id="axes_2">
   <g id="patch_7">
    <path d="M 146.835625 205.759712 
L 191.921562 205.759712 
L 191.921562 27.50325 
L 146.835625 27.50325 
z
" style="fill:#ffffff;"/>
   </g>
   <g id="matplotlib.axis_3">
    <g id="xtick_3">
     <g id="line2d_21">
      <g>
       <use style="stroke:#000000;stroke-width:0.8;" x="158.107109" xlink:href="#mc2c2a29251" y="205.759712"/>
      </g>
     </g>
     <g id="text_8">
      <!-- 2 sets -->
      <g transform="translate(151.22721 254.655665)rotate(-60)scale(0.18 -0.18)">
       <use xlink:href="#TimesNewRomanPS-BoldMT-32"/>
       <use x="50" xlink:href="#TimesNewRomanPS-BoldMT-20"/>
       <use x="75" xlink:href="#TimesNewRomanPS-BoldMT-73"/>
       <use x="113.916016" xlink:href="#TimesNewRomanPS-BoldMT-65"/>
       <use x="158.300781" xlink:href="#TimesNewRomanPS-BoldMT-74"/>
       <use x="191.601562" xlink:href="#TimesNewRomanPS-BoldMT-73"/>
      </g>
     </g>
    </g>
    <g id="xtick_4">
     <g id="line2d_22">
      <g>
       <use style="stroke:#000000;stroke-width:0.8;" x="180.650078" xlink:href="#mc2c2a29251" y="205.759712"/>
      </g>
     </g>
     <g id="text_9">
      <!-- 1 set -->
      <g transform="translate(175.521663 248.588345)rotate(-60)scale(0.18 -0.18)">
       <use xlink:href="#TimesNewRomanPS-BoldMT-31"/>
       <use x="50" xlink:href="#TimesNewRomanPS-BoldMT-20"/>
       <use x="75" xlink:href="#TimesNewRomanPS-BoldMT-73"/>
       <use x="113.916016" xlink:href="#TimesNewRomanPS-BoldMT-65"/>
       <use x="158.300781" xlink:href="#TimesNewRomanPS-BoldMT-74"/>
      </g>
     </g>
    </g>
   </g>
   <g id="matplotlib.axis_4">
    <g id="ytick_4">
     <g id="line2d_23">
      <path clip-path="url(#p1582c4047b)" d="M 146.835625 192.877767 
L 191.921562 192.877767 
" style="fill:none;stroke:#bfbfbf;stroke-linecap:square;stroke-width:0.5;"/>
     </g>
     <g id="line2d_24">
      <g>
       <use style="stroke:#000000;stroke-width:0.8;" x="146.835625" xlink:href="#m88d3055246" y="192.877767"/>
      </g>
     </g>
     <g id="text_10">
      <!-- 50 -->
      <defs>
       <path d="M 15.234375 66.21875 
L 46.234375 66.21875 
L 41.3125 53.609375 
L 15.234375 53.609375 
L 12.75 47.015625 
Q 29.59375 46.390625 38.671875 38.625 
Q 46.140625 32.234375 46.140625 22.703125 
Q 46.140625 16.609375 42.671875 10.765625 
Q 39.203125 4.9375 32.90625 1.78125 
Q 26.609375 -1.375 19.09375 -1.375 
Q 10.984375 -1.375 6.640625 1.65625 
Q 3.609375 3.8125 3.609375 6.546875 
Q 3.609375 8.640625 5.1875 10.25 
Q 6.78125 11.859375 8.890625 11.859375 
Q 10.796875 11.859375 12.75 11.078125 
Q 14.703125 10.296875 19.4375 6.984375 
Q 22.40625 4.9375 24.5625 4.15625 
Q 26.078125 3.5625 27.984375 3.5625 
Q 31.984375 3.5625 34.78125 6.484375 
Q 37.59375 9.421875 37.59375 13.53125 
Q 37.59375 22.125 29 27.484375 
Q 20.40625 32.859375 7.328125 32.859375 
Q 6 32.859375 3.375 32.8125 
z
" id="TimesNewRomanPS-BoldMT-35"/>
      </defs>
      <g transform="translate(121.835625 198.837454)scale(0.18 -0.18)">
       <use xlink:href="#TimesNewRomanPS-BoldMT-35"/>
       <use x="50" xlink:href="#TimesNewRomanPS-BoldMT-30"/>
      </g>
     </g>
    </g>
    <g id="ytick_5">
     <g id="line2d_25">
      <path clip-path="url(#p1582c4047b)" d="M 146.835625 134.790921 
L 191.921562 134.790921 
" style="fill:none;stroke:#bfbfbf;stroke-linecap:square;stroke-width:0.5;"/>
     </g>
     <g id="line2d_26">
      <g>
       <use style="stroke:#000000;stroke-width:0.8;" x="146.835625" xlink:href="#m88d3055246" y="134.790921"/>
      </g>
     </g>
     <g id="text_11">
      <!-- 55 -->
      <g transform="translate(121.835625 140.750608)scale(0.18 -0.18)">
       <use xlink:href="#TimesNewRomanPS-BoldMT-35"/>
       <use x="50" xlink:href="#TimesNewRomanPS-BoldMT-35"/>
      </g>
     </g>
    </g>
    <g id="ytick_6">
     <g id="line2d_27">
      <path clip-path="url(#p1582c4047b)" d="M 146.835625 76.704074 
L 191.921562 76.704074 
" style="fill:none;stroke:#bfbfbf;stroke-linecap:square;stroke-width:0.5;"/>
     </g>
     <g id="line2d_28">
      <g>
       <use style="stroke:#000000;stroke-width:0.8;" x="146.835625" xlink:href="#m88d3055246" y="76.704074"/>
      </g>
     </g>
     <g id="text_12">
      <!-- 60 -->
      <g transform="translate(121.835625 82.663762)scale(0.18 -0.18)">
       <use xlink:href="#TimesNewRomanPS-BoldMT-36"/>
       <use x="50" xlink:href="#TimesNewRomanPS-BoldMT-30"/>
      </g>
     </g>
    </g>
   </g>
   <g id="line2d_29">
    <path clip-path="url(#p1582c4047b)" d="M 156.416387 195.125371 
L 159.797832 195.125371 
L 159.797832 169.154576 
L 156.416387 169.154576 
L 156.416387 195.125371 
" style="fill:none;stroke:#000000;stroke-linecap:square;"/>
   </g>
   <g id="line2d_30">
    <path clip-path="url(#p1582c4047b)" d="M 158.107109 195.125371 
L 158.107109 197.657145 
" style="fill:none;stroke:#000000;stroke-linecap:square;"/>
   </g>
   <g id="line2d_31">
    <path clip-path="url(#p1582c4047b)" d="M 158.107109 169.154576 
L 158.107109 147.45844 
" style="fill:none;stroke:#000000;stroke-linecap:square;"/>
   </g>
   <g id="line2d_32">
    <path clip-path="url(#p1582c4047b)" d="M 157.261748 197.657145 
L 158.952471 197.657145 
" style="fill:none;stroke:#000000;stroke-linecap:square;"/>
   </g>
   <g id="line2d_33">
    <path clip-path="url(#p1582c4047b)" d="M 157.261748 147.45844 
L 158.952471 147.45844 
" style="fill:none;stroke:#000000;stroke-linecap:square;"/>
   </g>
   <g id="line2d_34">
    <path clip-path="url(#p1582c4047b)" d="M 178.959355 104.658473 
L 182.340801 104.658473 
L 182.340801 76.771762 
L 178.959355 76.771762 
L 178.959355 104.658473 
" style="fill:none;stroke:#000000;stroke-linecap:square;"/>
   </g>
   <g id="line2d_35">
    <path clip-path="url(#p1582c4047b)" d="M 180.650078 104.658473 
L 180.650078 135.937409 
" style="fill:none;stroke:#000000;stroke-linecap:square;"/>
   </g>
   <g id="line2d_36">
    <path clip-path="url(#p1582c4047b)" d="M 180.650078 76.771762 
L 180.650078 35.605816 
" style="fill:none;stroke:#000000;stroke-linecap:square;"/>
   </g>
   <g id="line2d_37">
    <path clip-path="url(#p1582c4047b)" d="M 179.804717 135.937409 
L 181.495439 135.937409 
" style="fill:none;stroke:#000000;stroke-linecap:square;"/>
   </g>
   <g id="line2d_38">
    <path clip-path="url(#p1582c4047b)" d="M 179.804717 35.605816 
L 181.495439 35.605816 
" style="fill:none;stroke:#000000;stroke-linecap:square;"/>
   </g>
   <g id="line2d_39">
    <path clip-path="url(#p1582c4047b)" d="M 156.416387 187.526424 
L 159.797832 187.526424 
" style="fill:none;stroke:#ff0000;stroke-linecap:square;"/>
   </g>
   <g id="line2d_40">
    <path clip-path="url(#p1582c4047b)" d="M 178.959355 95.180656 
L 182.340801 95.180656 
" style="fill:none;stroke:#ff0000;stroke-linecap:square;"/>
   </g>
   <g id="patch_8">
    <path d="M 146.835625 205.759712 
L 146.835625 27.50325 
" style="fill:none;stroke:#000000;stroke-linecap:square;stroke-linejoin:miter;stroke-width:0.8;"/>
   </g>
   <g id="patch_9">
    <path d="M 191.921562 205.759712 
L 191.921562 27.50325 
" style="fill:none;stroke:#000000;stroke-linecap:square;stroke-linejoin:miter;stroke-width:0.8;"/>
   </g>
   <g id="patch_10">
    <path d="M 146.835625 205.759712 
L 191.921562 205.759712 
" style="fill:none;stroke:#000000;stroke-linecap:square;stroke-linejoin:miter;stroke-width:0.8;"/>
   </g>
   <g id="patch_11">
    <path d="M 146.835625 27.50325 
L 191.921562 27.50325 
" style="fill:none;stroke:#000000;stroke-linecap:square;stroke-linejoin:miter;stroke-width:0.8;"/>
   </g>
   <g id="text_13">
    <!-- FD002 -->
    <g transform="translate(138.782531 21.50325)scale(0.216 -0.216)">
     <use xlink:href="#TimesNewRomanPS-BoldMT-46"/>
     <use x="61.083984" xlink:href="#TimesNewRomanPS-BoldMT-44"/>
     <use x="133.300781" xlink:href="#TimesNewRomanPS-BoldMT-30"/>
     <use x="183.300781" xlink:href="#TimesNewRomanPS-BoldMT-30"/>
     <use x="233.300781" xlink:href="#TimesNewRomanPS-BoldMT-32"/>
    </g>
   </g>
  </g>
  <g id="axes_3">
   <g id="patch_12">
    <path d="M 250.701562 205.759712 
L 295.7875 205.759712 
L 295.7875 27.50325 
L 250.701562 27.50325 
z
" style="fill:#ffffff;"/>
   </g>
   <g id="matplotlib.axis_5">
    <g id="xtick_5">
     <g id="line2d_41">
      <g>
       <use style="stroke:#000000;stroke-width:0.8;" x="261.973047" xlink:href="#mc2c2a29251" y="205.759712"/>
      </g>
     </g>
     <g id="text_14">
      <!-- 2 sets -->
      <g transform="translate(255.093147 254.655665)rotate(-60)scale(0.18 -0.18)">
       <use xlink:href="#TimesNewRomanPS-BoldMT-32"/>
       <use x="50" xlink:href="#TimesNewRomanPS-BoldMT-20"/>
       <use x="75" xlink:href="#TimesNewRomanPS-BoldMT-73"/>
       <use x="113.916016" xlink:href="#TimesNewRomanPS-BoldMT-65"/>
       <use x="158.300781" xlink:href="#TimesNewRomanPS-BoldMT-74"/>
       <use x="191.601562" xlink:href="#TimesNewRomanPS-BoldMT-73"/>
      </g>
     </g>
    </g>
    <g id="xtick_6">
     <g id="line2d_42">
      <g>
       <use style="stroke:#000000;stroke-width:0.8;" x="284.516016" xlink:href="#mc2c2a29251" y="205.759712"/>
      </g>
     </g>
     <g id="text_15">
      <!-- 1 set -->
      <g transform="translate(279.3876 248.588345)rotate(-60)scale(0.18 -0.18)">
       <use xlink:href="#TimesNewRomanPS-BoldMT-31"/>
       <use x="50" xlink:href="#TimesNewRomanPS-BoldMT-20"/>
       <use x="75" xlink:href="#TimesNewRomanPS-BoldMT-73"/>
       <use x="113.916016" xlink:href="#TimesNewRomanPS-BoldMT-65"/>
       <use x="158.300781" xlink:href="#TimesNewRomanPS-BoldMT-74"/>
      </g>
     </g>
    </g>
   </g>
   <g id="matplotlib.axis_6">
    <g id="ytick_7">
     <g id="line2d_43">
      <path clip-path="url(#p8d5b52e8fb)" d="M 250.701562 152.187152 
L 295.7875 152.187152 
" style="fill:none;stroke:#bfbfbf;stroke-linecap:square;stroke-width:0.5;"/>
     </g>
     <g id="line2d_44">
      <g>
       <use style="stroke:#000000;stroke-width:0.8;" x="250.701562" xlink:href="#m88d3055246" y="152.187152"/>
      </g>
     </g>
     <g id="text_16">
      <!-- 6 -->
      <g transform="translate(234.701562 158.14684)scale(0.18 -0.18)">
       <use xlink:href="#TimesNewRomanPS-BoldMT-36"/>
      </g>
     </g>
    </g>
    <g id="ytick_8">
     <g id="line2d_45">
      <path clip-path="url(#p8d5b52e8fb)" d="M 250.701562 96.515703 
L 295.7875 96.515703 
" style="fill:none;stroke:#bfbfbf;stroke-linecap:square;stroke-width:0.5;"/>
     </g>
     <g id="line2d_46">
      <g>
       <use style="stroke:#000000;stroke-width:0.8;" x="250.701562" xlink:href="#m88d3055246" y="96.515703"/>
      </g>
     </g>
     <g id="text_17">
      <!-- 8 -->
      <g transform="translate(234.701562 102.475391)scale(0.18 -0.18)">
       <use xlink:href="#TimesNewRomanPS-BoldMT-38"/>
      </g>
     </g>
    </g>
    <g id="ytick_9">
     <g id="line2d_47">
      <path clip-path="url(#p8d5b52e8fb)" d="M 250.701562 40.844254 
L 295.7875 40.844254 
" style="fill:none;stroke:#bfbfbf;stroke-linecap:square;stroke-width:0.5;"/>
     </g>
     <g id="line2d_48">
      <g>
       <use style="stroke:#000000;stroke-width:0.8;" x="250.701562" xlink:href="#m88d3055246" y="40.844254"/>
      </g>
     </g>
     <g id="text_18">
      <!-- 10 -->
      <g transform="translate(225.701562 46.803942)scale(0.18 -0.18)">
       <use xlink:href="#TimesNewRomanPS-BoldMT-31"/>
       <use x="50" xlink:href="#TimesNewRomanPS-BoldMT-30"/>
      </g>
     </g>
    </g>
   </g>
   <g id="line2d_49">
    <path clip-path="url(#p8d5b52e8fb)" d="M 260.282324 188.018213 
L 263.66377 188.018213 
L 263.66377 147.243963 
L 260.282324 147.243963 
L 260.282324 188.018213 
" style="fill:none;stroke:#000000;stroke-linecap:square;"/>
   </g>
   <g id="line2d_50">
    <path clip-path="url(#p8d5b52e8fb)" d="M 261.973047 188.018213 
L 261.973047 197.657145 
" style="fill:none;stroke:#000000;stroke-linecap:square;"/>
   </g>
   <g id="line2d_51">
    <path clip-path="url(#p8d5b52e8fb)" d="M 261.973047 147.243963 
L 261.973047 128.387407 
" style="fill:none;stroke:#000000;stroke-linecap:square;"/>
   </g>
   <g id="line2d_52">
    <path clip-path="url(#p8d5b52e8fb)" d="M 261.127686 197.657145 
L 262.818408 197.657145 
" style="fill:none;stroke:#000000;stroke-linecap:square;"/>
   </g>
   <g id="line2d_53">
    <path clip-path="url(#p8d5b52e8fb)" d="M 261.127686 128.387407 
L 262.818408 128.387407 
" style="fill:none;stroke:#000000;stroke-linecap:square;"/>
   </g>
   <g id="line2d_54">
    <path clip-path="url(#p8d5b52e8fb)" d="M 282.825293 135.224897 
L 286.206738 135.224897 
L 286.206738 85.483471 
L 282.825293 85.483471 
L 282.825293 135.224897 
" style="fill:none;stroke:#000000;stroke-linecap:square;"/>
   </g>
   <g id="line2d_55">
    <path clip-path="url(#p8d5b52e8fb)" d="M 284.516016 135.224897 
L 284.516016 151.372138 
" style="fill:none;stroke:#000000;stroke-linecap:square;"/>
   </g>
   <g id="line2d_56">
    <path clip-path="url(#p8d5b52e8fb)" d="M 284.516016 85.483471 
L 284.516016 35.605816 
" style="fill:none;stroke:#000000;stroke-linecap:square;"/>
   </g>
   <g id="line2d_57">
    <path clip-path="url(#p8d5b52e8fb)" d="M 283.670654 151.372138 
L 285.361377 151.372138 
" style="fill:none;stroke:#000000;stroke-linecap:square;"/>
   </g>
   <g id="line2d_58">
    <path clip-path="url(#p8d5b52e8fb)" d="M 283.670654 35.605816 
L 285.361377 35.605816 
" style="fill:none;stroke:#000000;stroke-linecap:square;"/>
   </g>
   <g id="line2d_59">
    <path clip-path="url(#p8d5b52e8fb)" d="M 260.282324 182.772771 
L 263.66377 182.772771 
" style="fill:none;stroke:#ff0000;stroke-linecap:square;"/>
   </g>
   <g id="line2d_60">
    <path clip-path="url(#p8d5b52e8fb)" d="M 282.825293 117.794738 
L 286.206738 117.794738 
" style="fill:none;stroke:#ff0000;stroke-linecap:square;"/>
   </g>
   <g id="patch_13">
    <path d="M 250.701562 205.759712 
L 250.701562 27.50325 
" style="fill:none;stroke:#000000;stroke-linecap:square;stroke-linejoin:miter;stroke-width:0.8;"/>
   </g>
   <g id="patch_14">
    <path d="M 295.7875 205.759712 
L 295.7875 27.50325 
" style="fill:none;stroke:#000000;stroke-linecap:square;stroke-linejoin:miter;stroke-width:0.8;"/>
   </g>
   <g id="patch_15">
    <path d="M 250.701562 205.759712 
L 295.7875 205.759712 
" style="fill:none;stroke:#000000;stroke-linecap:square;stroke-linejoin:miter;stroke-width:0.8;"/>
   </g>
   <g id="patch_16">
    <path d="M 250.701562 27.50325 
L 295.7875 27.50325 
" style="fill:none;stroke:#000000;stroke-linecap:square;stroke-linejoin:miter;stroke-width:0.8;"/>
   </g>
   <g id="text_19">
    <!-- FD003 -->
    <defs>
     <path d="M 14.796875 33.203125 
L 14.796875 34.90625 
Q 20.359375 36.53125 22.5 37.921875 
Q 24.65625 39.3125 26.21875 42.15625 
Q 27.78125 45.015625 27.78125 47.953125 
Q 27.78125 52 24.828125 54.90625 
Q 21.875 57.8125 17.484375 57.8125 
Q 10.640625 57.8125 5.859375 50.59375 
L 4.046875 51.21875 
Q 7.5625 59.375 13.0625 63.46875 
Q 18.5625 67.578125 25.296875 67.578125 
Q 32.171875 67.578125 36.640625 63.375 
Q 41.109375 59.1875 41.109375 53.5625 
Q 41.109375 49.90625 39.03125 46.5 
Q 36.96875 43.109375 32.515625 40.53125 
Q 38.234375 37.75 41.234375 33.671875 
Q 44.234375 29.59375 44.234375 23.4375 
Q 44.234375 13.09375 36.734375 5.828125 
Q 29.25 -1.421875 16.65625 -1.421875 
Q 8.25 -1.421875 4.390625 1.375 
Q 1.609375 3.328125 1.609375 6.390625 
Q 1.609375 8.640625 3.21875 10.21875 
Q 4.828125 11.8125 6.9375 11.8125 
Q 8.546875 11.8125 9.96875 11.140625 
Q 10.75 10.75 15.5 6.859375 
Q 20.265625 2.984375 24.421875 2.984375 
Q 28.03125 2.984375 30.609375 5.828125 
Q 33.203125 8.6875 33.203125 13.09375 
Q 33.203125 19.78125 28.515625 25.421875 
Q 23.828125 31.0625 14.796875 33.203125 
z
" id="TimesNewRomanPS-BoldMT-33"/>
    </defs>
    <g transform="translate(242.648469 21.50325)scale(0.216 -0.216)">
     <use xlink:href="#TimesNewRomanPS-BoldMT-46"/>
     <use x="61.083984" xlink:href="#TimesNewRomanPS-BoldMT-44"/>
     <use x="133.300781" xlink:href="#TimesNewRomanPS-BoldMT-30"/>
     <use x="183.300781" xlink:href="#TimesNewRomanPS-BoldMT-30"/>
     <use x="233.300781" xlink:href="#TimesNewRomanPS-BoldMT-33"/>
    </g>
   </g>
  </g>
  <g id="axes_4">
   <g id="patch_17">
    <path d="M 354.5675 205.759712 
L 399.653437 205.759712 
L 399.653437 27.50325 
L 354.5675 27.50325 
z
" style="fill:#ffffff;"/>
   </g>
   <g id="matplotlib.axis_7">
    <g id="xtick_7">
     <g id="line2d_61">
      <g>
       <use style="stroke:#000000;stroke-width:0.8;" x="365.838984" xlink:href="#mc2c2a29251" y="205.759712"/>
      </g>
     </g>
     <g id="text_20">
      <!-- 2 sets -->
      <g transform="translate(358.959085 254.655665)rotate(-60)scale(0.18 -0.18)">
       <use xlink:href="#TimesNewRomanPS-BoldMT-32"/>
       <use x="50" xlink:href="#TimesNewRomanPS-BoldMT-20"/>
       <use x="75" xlink:href="#TimesNewRomanPS-BoldMT-73"/>
       <use x="113.916016" xlink:href="#TimesNewRomanPS-BoldMT-65"/>
       <use x="158.300781" xlink:href="#TimesNewRomanPS-BoldMT-74"/>
       <use x="191.601562" xlink:href="#TimesNewRomanPS-BoldMT-73"/>
      </g>
     </g>
    </g>
    <g id="xtick_8">
     <g id="line2d_62">
      <g>
       <use style="stroke:#000000;stroke-width:0.8;" x="388.381953" xlink:href="#mc2c2a29251" y="205.759712"/>
      </g>
     </g>
     <g id="text_21">
      <!-- 1 set -->
      <g transform="translate(383.253538 248.588345)rotate(-60)scale(0.18 -0.18)">
       <use xlink:href="#TimesNewRomanPS-BoldMT-31"/>
       <use x="50" xlink:href="#TimesNewRomanPS-BoldMT-20"/>
       <use x="75" xlink:href="#TimesNewRomanPS-BoldMT-73"/>
       <use x="113.916016" xlink:href="#TimesNewRomanPS-BoldMT-65"/>
       <use x="158.300781" xlink:href="#TimesNewRomanPS-BoldMT-74"/>
      </g>
     </g>
    </g>
   </g>
   <g id="matplotlib.axis_8">
    <g id="ytick_10">
     <g id="line2d_63">
      <path clip-path="url(#p33e76ebe5f)" d="M 354.5675 198.718646 
L 399.653437 198.718646 
" style="fill:none;stroke:#bfbfbf;stroke-linecap:square;stroke-width:0.5;"/>
     </g>
     <g id="line2d_64">
      <g>
       <use style="stroke:#000000;stroke-width:0.8;" x="354.5675" xlink:href="#m88d3055246" y="198.718646"/>
      </g>
     </g>
     <g id="text_22">
      <!-- 65 -->
      <g transform="translate(329.5675 204.678334)scale(0.18 -0.18)">
       <use xlink:href="#TimesNewRomanPS-BoldMT-36"/>
       <use x="50" xlink:href="#TimesNewRomanPS-BoldMT-35"/>
      </g>
     </g>
    </g>
    <g id="ytick_11">
     <g id="line2d_65">
      <path clip-path="url(#p33e76ebe5f)" d="M 354.5675 138.870892 
L 399.653437 138.870892 
" style="fill:none;stroke:#bfbfbf;stroke-linecap:square;stroke-width:0.5;"/>
     </g>
     <g id="line2d_66">
      <g>
       <use style="stroke:#000000;stroke-width:0.8;" x="354.5675" xlink:href="#m88d3055246" y="138.870892"/>
      </g>
     </g>
     <g id="text_23">
      <!-- 70 -->
      <defs>
       <path d="M 17.71875 -1.375 
L 35.75 53.265625 
L 22.015625 53.265625 
Q 13.96875 53.265625 9.90625 51.171875 
Q 7.078125 49.703125 5.21875 45.65625 
L 3.375 45.65625 
L 8.15625 66.21875 
L 47.609375 66.21875 
L 25.390625 -1.375 
z
" id="TimesNewRomanPS-BoldMT-37"/>
      </defs>
      <g transform="translate(329.5675 144.83058)scale(0.18 -0.18)">
       <use xlink:href="#TimesNewRomanPS-BoldMT-37"/>
       <use x="50" xlink:href="#TimesNewRomanPS-BoldMT-30"/>
      </g>
     </g>
    </g>
    <g id="ytick_12">
     <g id="line2d_67">
      <path clip-path="url(#p33e76ebe5f)" d="M 354.5675 79.023138 
L 399.653437 79.023138 
" style="fill:none;stroke:#bfbfbf;stroke-linecap:square;stroke-width:0.5;"/>
     </g>
     <g id="line2d_68">
      <g>
       <use style="stroke:#000000;stroke-width:0.8;" x="354.5675" xlink:href="#m88d3055246" y="79.023138"/>
      </g>
     </g>
     <g id="text_24">
      <!-- 75 -->
      <g transform="translate(329.5675 84.982826)scale(0.18 -0.18)">
       <use xlink:href="#TimesNewRomanPS-BoldMT-37"/>
       <use x="50" xlink:href="#TimesNewRomanPS-BoldMT-35"/>
      </g>
     </g>
    </g>
   </g>
   <g id="line2d_69">
    <path clip-path="url(#p33e76ebe5f)" d="M 364.148262 74.946304 
L 367.529707 74.946304 
L 367.529707 44.239311 
L 364.148262 44.239311 
L 364.148262 74.946304 
" style="fill:none;stroke:#000000;stroke-linecap:square;"/>
   </g>
   <g id="line2d_70">
    <path clip-path="url(#p33e76ebe5f)" d="M 365.838984 74.946304 
L 365.838984 82.321122 
" style="fill:none;stroke:#000000;stroke-linecap:square;"/>
   </g>
   <g id="line2d_71">
    <path clip-path="url(#p33e76ebe5f)" d="M 365.838984 44.239311 
L 365.838984 35.605816 
" style="fill:none;stroke:#000000;stroke-linecap:square;"/>
   </g>
   <g id="line2d_72">
    <path clip-path="url(#p33e76ebe5f)" d="M 364.993623 82.321122 
L 366.684346 82.321122 
" style="fill:none;stroke:#000000;stroke-linecap:square;"/>
   </g>
   <g id="line2d_73">
    <path clip-path="url(#p33e76ebe5f)" d="M 364.993623 35.605816 
L 366.684346 35.605816 
" style="fill:none;stroke:#000000;stroke-linecap:square;"/>
   </g>
   <g id="line2d_74">
    <path clip-path="url(#p33e76ebe5f)" d="M 386.69123 193.214 
L 390.072676 193.214 
L 390.072676 173.800635 
L 386.69123 173.800635 
L 386.69123 193.214 
" style="fill:none;stroke:#000000;stroke-linecap:square;"/>
   </g>
   <g id="line2d_75">
    <path clip-path="url(#p33e76ebe5f)" d="M 388.381953 193.214 
L 388.381953 197.657145 
" style="fill:none;stroke:#000000;stroke-linecap:square;"/>
   </g>
   <g id="line2d_76">
    <path clip-path="url(#p33e76ebe5f)" d="M 388.381953 173.800635 
L 388.381953 163.798173 
" style="fill:none;stroke:#000000;stroke-linecap:square;"/>
   </g>
   <g id="line2d_77">
    <path clip-path="url(#p33e76ebe5f)" d="M 387.536592 197.657145 
L 389.227314 197.657145 
" style="fill:none;stroke:#000000;stroke-linecap:square;"/>
   </g>
   <g id="line2d_78">
    <path clip-path="url(#p33e76ebe5f)" d="M 387.536592 163.798173 
L 389.227314 163.798173 
" style="fill:none;stroke:#000000;stroke-linecap:square;"/>
   </g>
   <g id="line2d_79">
    <path clip-path="url(#p33e76ebe5f)" d="M 364.148262 69.19135 
L 367.529707 69.19135 
" style="fill:none;stroke:#ff0000;stroke-linecap:square;"/>
   </g>
   <g id="line2d_80">
    <path clip-path="url(#p33e76ebe5f)" d="M 386.69123 178.277123 
L 390.072676 178.277123 
" style="fill:none;stroke:#ff0000;stroke-linecap:square;"/>
   </g>
   <g id="patch_18">
    <path d="M 354.5675 205.759712 
L 354.5675 27.50325 
" style="fill:none;stroke:#000000;stroke-linecap:square;stroke-linejoin:miter;stroke-width:0.8;"/>
   </g>
   <g id="patch_19">
    <path d="M 399.653437 205.759712 
L 399.653437 27.50325 
" style="fill:none;stroke:#000000;stroke-linecap:square;stroke-linejoin:miter;stroke-width:0.8;"/>
   </g>
   <g id="patch_20">
    <path d="M 354.5675 205.759712 
L 399.653437 205.759712 
" style="fill:none;stroke:#000000;stroke-linecap:square;stroke-linejoin:miter;stroke-width:0.8;"/>
   </g>
   <g id="patch_21">
    <path d="M 354.5675 27.50325 
L 399.653437 27.50325 
" style="fill:none;stroke:#000000;stroke-linecap:square;stroke-linejoin:miter;stroke-width:0.8;"/>
   </g>
   <g id="text_25">
    <!-- FD004 -->
    <g transform="translate(346.514406 21.50325)scale(0.216 -0.216)">
     <use xlink:href="#TimesNewRomanPS-BoldMT-46"/>
     <use x="61.083984" xlink:href="#TimesNewRomanPS-BoldMT-44"/>
     <use x="133.300781" xlink:href="#TimesNewRomanPS-BoldMT-30"/>
     <use x="183.300781" xlink:href="#TimesNewRomanPS-BoldMT-30"/>
     <use x="233.300781" xlink:href="#TimesNewRomanPS-BoldMT-34"/>
    </g>
   </g>
  </g>
 </g>
 <defs>
  <clipPath id="pea8131b547">
   <rect height="178.256462" width="45.085938" x="42.969687" y="27.50325"/>
  </clipPath>
  <clipPath id="p1582c4047b">
   <rect height="178.256462" width="45.085937" x="146.835625" y="27.50325"/>
  </clipPath>
  <clipPath id="p8d5b52e8fb">
   <rect height="178.256462" width="45.085938" x="250.701562" y="27.50325"/>
  </clipPath>
  <clipPath id="p33e76ebe5f">
   <rect height="178.256462" width="45.085938" x="354.5675" y="27.50325"/>
  </clipPath>
 </defs>
</svg>
